<?xml version="1.0" standalone="no"?>
<!DOCTYPE svg PUBLIC "-//W3C//DTD SVG 20010904//EN"
 "http://www.w3.org/TR/2001/REC-SVG-20010904/DTD/svg10.dtd">
<svg version="1.0" xmlns="http://www.w3.org/2000/svg"
 width="400.000000pt" height="400.000000pt" viewBox="0 0 400.000000 400.000000"
 preserveAspectRatio="xMidYMid meet">

<g transform="translate(0.000000,400.000000) scale(0.100000,-0.100000)"
fill="#000000" stroke="none">
<path d="M2134 3978 c-12 -11 -38 -35 -58 -53 -43 -39 -44 -59 -11 -125 21
-42 23 -53 13 -75 -11 -24 -15 -25 -88 -25 -88 0 -96 5 -106 68 -6 40 5 57 21
32 12 -19 49 -10 72 17 22 25 22 27 7 45 -10 10 -24 18 -33 19 -12 0 -10 4 7
16 31 22 28 49 -10 67 -43 22 -55 20 -71 -10 -12 -23 -15 -24 -26 -10 -20 24
-53 19 -81 -11 l-25 -26 27 -20 27 -20 -22 -18 -22 -19 30 -25 c19 -16 39 -24
52 -22 19 4 25 -2 33 -32 13 -48 13 -48 -12 -54 -16 -5 -32 4 -61 30 l-40 36
-85 -6 c-46 -4 -86 -8 -89 -10 -2 -3 8 -22 22 -43 l26 -38 -132 -42 c-160 -51
-360 -150 -489 -241 -122 -87 -317 -282 -400 -400 -155 -222 -250 -453 -295
-717 -23 -136 -20 -405 6 -553 11 -65 24 -148 29 -186 6 -49 15 -76 34 -101
14 -19 26 -37 26 -39 0 -2 -17 -7 -37 -11 -21 -3 -61 -21 -90 -41 -29 -19 -57
-35 -63 -35 -5 0 -10 -4 -10 -10 0 -5 7 -10 15 -10 9 0 33 -11 54 -25 51 -34
98 -41 145 -21 48 20 43 21 60 -13 l15 -29 -82 -4 c-94 -5 -117 -1 -117 18 0
14 -30 34 -51 34 -6 0 -27 -16 -45 -36 -19 -19 -34 -29 -34 -22 0 21 -38 58
-59 58 -28 0 -101 -51 -101 -70 0 -22 28 -47 64 -56 l28 -7 -38 -13 c-21 -7
-44 -21 -51 -30 -12 -17 -7 -44 8 -44 5 0 19 -11 31 -25 27 -32 52 -32 84 0
l26 26 20 -26 c23 -29 75 -35 85 -9 3 8 16 20 29 25 34 12 30 43 -8 73 l-33
26 27 0 c19 0 34 10 50 30 21 29 24 30 102 30 l81 -1 34 -56 c19 -31 56 -85
82 -120 27 -34 46 -63 44 -63 -2 0 -19 9 -38 20 -58 35 -115 36 -212 5 l-86
-27 63 -45 c35 -25 77 -51 95 -59 58 -25 135 -14 195 28 14 10 32 16 40 13 18
-7 41 -45 33 -53 -4 -4 -38 -7 -77 -8 -67 0 -73 -2 -99 -32 -22 -24 -29 -43
-29 -72 0 -21 -5 -51 -10 -65 -9 -24 -8 -26 7 -20 10 4 45 10 77 14 74 10 111
45 122 116 3 26 13 49 20 52 8 3 39 -16 70 -43 31 -27 81 -69 112 -93 66 -50
76 -66 38 -59 -14 3 -26 4 -26 2 0 -18 87 -134 108 -144 l27 -13 -35 -7 c-53
-10 -90 -33 -146 -93 l-51 -54 99 -13 c54 -7 114 -9 133 -6 43 8 100 56 125
106 14 27 29 40 59 50 23 7 44 11 46 8 3 -3 -1 -21 -10 -39 -12 -24 -29 -40
-60 -52 -85 -36 -98 -84 -46 -166 17 -26 31 -54 31 -61 0 -9 10 -5 28 11 15
14 39 33 53 41 14 9 32 30 38 46 11 27 10 37 -14 90 -25 57 -26 61 -11 91 l16
31 42 -17 c24 -9 72 -35 108 -58 l66 -40 -59 -60 c-32 -33 -52 -61 -45 -62 7
-1 52 -7 99 -13 112 -15 158 -4 213 54 36 37 110 76 122 63 11 -11 -10 -35
-36 -40 -37 -8 -100 -64 -100 -89 0 -11 15 -48 33 -82 17 -33 33 -62 33 -64 1
-2 22 11 48 28 82 56 94 94 51 168 -19 34 -22 48 -15 63 9 16 22 19 96 19 82
0 85 -1 94 -26 6 -14 10 -36 10 -49 0 -23 -1 -23 -30 -8 -30 14 -32 14 -55
-12 -32 -33 -32 -52 0 -67 24 -11 25 -11 5 -25 -29 -21 -24 -46 13 -66 37 -20
63 -15 73 15 5 18 7 18 23 4 25 -22 52 -20 79 8 25 27 21 52 -10 62 -20 6 -20
6 1 21 27 18 27 43 1 50 -11 3 -20 10 -20 15 0 6 -13 8 -29 6 -27 -4 -30 -1
-39 33 -5 21 -7 41 -4 44 12 12 63 4 69 -10 13 -35 62 -47 149 -40 l84 7 -27
34 c-14 19 -24 37 -21 39 2 3 44 16 94 30 519 148 938 521 1133 1010 148 369
160 801 33 1169 l-29 83 46 22 c110 50 154 81 119 81 -7 0 -33 14 -58 31 -38
26 -52 30 -90 26 -25 -2 -54 -8 -66 -11 -15 -6 -23 -2 -31 17 l-11 24 75 6
c85 6 100 3 108 -24 11 -33 74 -22 100 17 l20 30 15 -30 c9 -18 27 -35 44 -41
24 -8 31 -6 45 12 10 11 26 23 37 25 21 4 29 35 16 56 -5 7 -26 19 -47 26
l-39 14 31 6 c35 8 76 42 70 59 -2 7 -13 16 -25 22 -11 5 -23 17 -25 27 -10
36 -97 9 -97 -30 -1 -15 -3 -14 -15 3 -28 40 -36 45 -65 45 -16 0 -33 -6 -37
-12 -4 -7 -17 -18 -28 -24 -11 -6 -22 -19 -23 -28 -4 -21 25 -56 47 -57 9 0 2
-7 -16 -15 -17 -7 -39 -24 -47 -36 -13 -19 -27 -23 -85 -26 l-69 -4 -47 73
c-26 41 -62 92 -79 114 -24 30 -27 37 -11 30 11 -5 52 -11 90 -12 54 -3 84 2
133 20 l62 23 -73 51 c-40 28 -89 55 -108 60 -43 12 -112 -1 -157 -27 l-35
-21 -23 22 c-13 12 -24 26 -24 31 0 4 32 8 71 8 65 0 73 2 100 29 20 21 29 39
29 63 0 18 4 47 9 64 l9 31 -47 -4 c-110 -10 -150 -41 -166 -128 -4 -22 -9
-43 -12 -48 -3 -4 -32 16 -66 46 -34 30 -91 75 -126 100 -55 41 -60 47 -37 47
14 0 26 2 26 4 0 17 -86 128 -108 140 -24 14 -25 15 -6 16 44 0 100 34 154 90
l56 59 -84 11 c-127 18 -175 11 -222 -35 -21 -21 -44 -50 -50 -66 -12 -28 -82
-65 -100 -54 -22 14 23 71 73 95 33 16 57 35 66 54 12 26 10 33 -25 101 l-37
74 -30 -22 c-94 -71 -106 -102 -66 -183 19 -37 20 -47 9 -73 -7 -17 -20 -31
-29 -31 -17 1 -69 26 -159 77 l-52 30 27 25 c16 15 42 42 59 60 l31 34 -81 12
c-45 7 -97 12 -114 12 -43 0 -105 -33 -131 -69 -18 -25 -107 -69 -118 -57 -10
10 12 34 42 45 48 17 95 59 95 84 1 22 -60 156 -70 155 -3 0 -15 -9 -26 -20z
m46 -268 c0 -5 -10 -10 -22 -9 -22 0 -22 1 -3 9 11 5 21 9 23 9 1 1 2 -3 2 -9z
m260 -45 c17 -9 30 -17 30 -19 0 -6 -101 21 -108 28 -12 13 51 5 78 -9z m-499
-94 c-7 -12 -24 -20 -51 -23 -50 -4 -51 5 -2 25 52 22 65 22 53 -2z m42 -1
c-3 -11 -9 -20 -14 -20 -11 0 -11 3 -3 24 9 23 23 20 17 -4z m235 5 c2 -2 1
-8 -3 -14 -10 -17 -205 -15 -205 2 0 8 3 17 8 21 7 8 192 0 200 -9z m612 0
c43 -10 48 -14 25 -15 -16 0 -43 -7 -60 -14 -29 -12 -75 -4 -75 14 0 6 38 28
50 29 3 0 30 -6 60 -14z m-344 -56 c119 -36 212 -79 229 -105 l16 -25 -38 17
c-102 44 -154 64 -220 84 -46 14 -73 27 -73 36 0 18 5 18 86 -7z m-963 -34
c-10 -14 -51 -37 -95 -56 -340 -138 -664 -460 -812 -806 -91 -214 -128 -391
-130 -629 -2 -129 -5 -155 -21 -184 -11 -18 -24 -33 -30 -32 -26 3 -32 285 -9
441 27 181 61 294 140 460 176 370 492 659 874 802 95 36 106 36 83 4z m478
-36 c17 -25 17 -27 3 -33 -20 -8 -20 -8 -38 36 -12 28 -13 37 -3 41 6 2 14 -1
16 -7 2 -6 12 -23 22 -37z m147 45 c34 -5 52 -11 52 -20 0 -12 -94 -74 -112
-74 -14 0 -78 68 -78 84 0 18 43 21 138 10z m-338 -34 c-25 -25 -25 -55 0
-105 l21 -40 -38 -29 c-21 -17 -128 -118 -238 -226 -110 -109 -234 -222 -275
-252 -155 -113 -422 -426 -708 -827 l-32 -45 0 92 c0 539 330 1061 828 1311
149 75 179 84 269 82 84 -2 124 10 152 43 8 9 20 16 27 16 10 0 8 -6 -6 -20z
m477 -20 c23 0 22 -1 -10 -30 -28 -24 -44 -30 -80 -30 -76 0 -83 8 -35 41 31
20 51 27 72 24 16 -3 39 -5 53 -5z m635 -132 c125 -84 200 -158 160 -158 -4 0
-39 26 -78 58 -39 32 -105 79 -146 105 -42 26 -84 59 -93 74 l-18 26 59 -33
c33 -18 85 -50 116 -72z m-831 72 c48 -21 122 -26 164 -10 22 8 32 6 59 -15
67 -51 149 -68 221 -46 73 23 110 41 107 51 -4 19 137 -59 154 -85 9 -14 14
-28 12 -31 -3 -2 -30 -9 -59 -13 -30 -5 -66 -14 -81 -20 -25 -9 -28 -8 -28 10
0 11 -8 22 -17 25 -10 3 -26 10 -36 15 -26 14 -56 2 -63 -26 -5 -20 -9 -23
-24 -15 -34 18 -58 11 -74 -22 -23 -45 -20 -57 15 -72 19 -8 27 -16 20 -20
-18 -11 -13 -56 7 -62 9 -3 25 -10 35 -15 28 -15 57 -1 63 31 6 27 7 27 35 13
33 -16 69 -9 69 13 0 9 7 22 15 31 18 18 6 40 -30 53 -18 7 -15 9 19 24 21 9
62 19 91 22 l53 6 26 -44 c25 -42 25 -46 13 -106 -11 -53 -18 -66 -55 -98 -78
-67 -90 -122 -45 -214 15 -30 28 -57 30 -59 5 -8 126 106 139 131 26 50 16 97
-32 149 -21 22 -23 32 -18 72 4 26 10 47 13 47 4 0 20 -13 34 -28 24 -25 27
-34 21 -70 -14 -89 27 -125 155 -137 71 -6 74 -6 68 14 -3 12 -4 21 -3 21 2 0
17 -5 34 -11 21 -7 49 -35 86 -87 49 -68 56 -83 56 -124 0 -27 -4 -48 -9 -48
-19 0 -99 -81 -104 -105 -4 -22 9 -55 49 -133 4 -7 124 80 138 100 9 12 17 20
20 17 10 -10 45 -129 60 -202 71 -342 23 -693 -136 -997 -140 -269 -335 -472
-592 -619 -144 -81 -232 -115 -291 -111 -27 3 -89 5 -137 5 l-87 0 -43 -43
c-32 -30 -52 -42 -73 -42 l-30 0 30 16 c47 24 75 55 75 82 0 13 -15 52 -32 86
-40 75 -40 74 -45 58 -3 -7 -22 -21 -43 -32 -71 -36 -87 -87 -50 -160 25 -48
25 -50 0 -50 -12 0 -20 7 -20 16 0 29 -33 72 -77 100 -35 22 -42 31 -37 48 27
88 75 147 141 172 56 22 146 23 269 5 50 -7 120 -12 155 -9 106 7 242 82 254
140 9 39 41 76 101 114 36 23 66 55 97 101 55 84 117 206 117 232 0 10 -16 38
-35 61 -87 104 -196 329 -231 475 -32 136 -70 210 -154 299 -66 70 -238 220
-304 266 -54 37 -204 207 -211 238 -7 32 15 100 47 145 12 18 56 67 97 110 41
42 69 77 63 77 -13 0 -288 -174 -318 -201 -37 -34 -47 -25 -40 39 14 118 82
472 92 472 1 0 21 -9 45 -20z m853 -211 c59 -32 97 -63 171 -141 52 -56 95
-105 95 -109 0 -5 -11 -3 -25 3 -14 6 -25 19 -25 28 0 32 -53 69 -116 81 -32
6 -68 18 -78 27 -25 22 -106 131 -106 143 0 13 2 13 84 -32z m253 -96 c72 -81
166 -204 160 -209 -12 -13 -50 18 -90 73 -25 33 -76 93 -112 132 -61 64 -65
71 -43 71 18 0 42 -18 85 -67z m179 -241 c6 -4 23 -28 38 -53 l26 -46 -25 4
c-16 4 -33 20 -50 48 -14 24 -25 46 -25 49 0 8 23 7 36 -2z m89 -153 c19 -36
19 -38 -5 -32 -17 5 -50 49 -50 67 0 15 43 -12 55 -35z m-77 -54 l15 -30 -22
19 c-12 11 -21 30 -20 45 0 16 3 20 6 11 3 -8 12 -28 21 -45z m183 -234 c0 -9
2 -23 4 -31 48 -214 50 -488 4 -695 -21 -95 -81 -260 -129 -360 -178 -364
-513 -658 -903 -794 -98 -34 -101 -35 -92 -22 3 5 36 19 73 31 37 12 121 49
187 81 431 213 738 612 836 1089 21 99 24 142 23 310 0 187 -7 250 -42 392 -9
36 -9 36 14 26 13 -6 24 -18 25 -27z m-1617 -1813 c19 -18 37 -43 41 -55 6
-22 4 -23 -59 -23 -58 0 -66 2 -66 19 0 27 28 91 40 91 6 0 26 -15 44 -32z
m-676 -111 l23 -13 -33 -16 c-27 -13 -42 -13 -80 -5 l-46 11 46 17 c59 21 62
21 90 6z m670 -27 c26 0 41 -4 37 -10 -7 -11 -84 -14 -109 -4 -25 9 -19 27 7
20 12 -3 41 -6 65 -6z m82 -10 c0 -5 -5 -10 -11 -10 -5 0 -7 5 -4 10 3 6 8 10
11 10 2 0 4 -4 4 -10z m55 0 c-28 -12 -37 -12 -30 0 3 6 16 10 28 9 21 0 21
-1 2 -9z m-491 -76 c20 -3 36 -10 36 -15 0 -15 -33 -9 -70 12 -19 11 -27 18
-18 15 9 -3 33 -8 52 -12z m253 -50 c-3 -3 -12 -4 -19 -1 -8 3 -5 6 6 6 11 1
17 -2 13 -5z"/>
</g>
</svg>
