<svg xmlns="http://www.w3.org/2000/svg" width="304.562" height="114.781" viewBox="0 0 304.562 114.781">
  <defs>
    <style>
      .cls-1 {
        fill: #142626;
        fill-rule: evenodd;
      }
    </style>
  </defs>
  <path id="_01001010_01001001_01001110_01000100_" 
  data-name="        01001010 01001001 01001110                    01000100 " class="cls-1" d="M582.992,631.627l-1.831-4.87a13.683,13.683,0,0,1-.971-3.351q0-.879,2.106-0.971a0.377,0.377,0,0,0,.293-0.439q0-.421-0.293-0.421-2.49.073-3.992,0.073-1.372,0-3.79-.073-0.293,0-.293.421a0.377,0.377,0,0,0,.293.439,3.088,3.088,0,0,1,1.959.605,13.968,13.968,0,0,1,1.8,3.717l2.545,6.811q1.062,2.746,1.7,4.816a0.24,0.24,0,0,0,.256.183,6.781,6.781,0,0,0,1.355-.531q0.531-1.72,1.648-4.431l2.728-6.848a12.922,12.922,0,0,1,1.795-3.534,2.667,2.667,0,0,1,1.739-.788A0.38,0.38,0,0,0,592.4,622a0.35,0.35,0,0,0-.366-0.421q-1.868.073-2.929,0.073-1.173,0-3.351-.073c-0.2,0-.293.14-0.293,0.421a0.379,0.379,0,0,0,.311.439,6.026,6.026,0,0,1,1.7.312,0.845,0.845,0,0,1,.476.824,10.329,10.329,0,0,1-.916,3.186l-1.867,4.834q-0.879,2.361-1.117,3.039-0.457-1.355-1.062-3h0Zm18.237-3.442q3.589,0,7.379.11a0.544,0.544,0,0,0,.385-0.183,0.622,0.622,0,0,0,.183-0.458,7.267,7.267,0,0,0-1.831-4.5,6.355,6.355,0,0,0-4.926-2.143,7.353,7.353,0,0,0-5.42,2.252,9.051,9.051,0,0,0-2.6,6.684,8.925,8.925,0,0,0,2.033,6.006,7.627,7.627,0,0,0,6.079,2.655,7.209,7.209,0,0,0,6.3-3.5,0.817,0.817,0,0,0,.219-0.476,0.394,0.394,0,0,0-.2-0.293,0.656,0.656,0,0,0-.439-0.2,0.289,0.289,0,0,0-.257.146,5.93,5.93,0,0,1-5.108,2.637A4.87,4.87,0,0,1,599.4,635.2a7.733,7.733,0,0,1-1.959-5.457,12.337,12.337,0,0,1,.11-1.519q1.172-.037,3.68-0.037h0Zm-1.776-4.688a3.906,3.906,0,0,1,2.966-1.409,3.165,3.165,0,0,1,2.362,1.025,5.188,5.188,0,0,1,1.282,3.186c0,0.33-.122.494-0.366,0.494q-2.307.147-4.852,0.147-1.979,0-3.077-.037a7.465,7.465,0,0,1,1.685-3.406h0Zm18.6-2q0-.33-0.44-0.33a24.758,24.758,0,0,1-4.907,1.52,0.55,0.55,0,0,0-.458.531q0,0.458.348,0.458l1.337-.074a1.185,1.185,0,0,1,1.025.788,8.768,8.768,0,0,1,.33,3.039v5.237q0,3.3-.367,3.827a1.122,1.122,0,0,1-.494.439,6.462,6.462,0,0,1-1.5.238,0.374,0.374,0,0,0-.33.422,0.327,0.327,0,0,0,.33.4q2.252-.072,3.826-0.073,1.465,0,3.718.073,0.292,0,.292-0.4a0.366,0.366,0,0,0-.292-0.422q-1.923-.127-2.234-0.677a14.206,14.206,0,0,1-.257-3.827v-4.34a5.1,5.1,0,0,1,1.081-3.149,2.76,2.76,0,0,1,1.849-1.392,2.584,2.584,0,0,1,.97.348,2.665,2.665,0,0,0,1.062.33,1.6,1.6,0,0,0,1.117-.659,2.539,2.539,0,0,0,.715-1.7,0.868,0.868,0,0,0-.5-0.714,2.989,2.989,0,0,0-1.538-.348q-2.307,0-4.761,3.973,0-1.337.074-3.515h0Zm21.716-7.123a0.489,0.489,0,0,0-.421.366q0,0.751.476,0.751l1.648-.513a4.782,4.782,0,0,1,1.355-.275,1.242,1.242,0,0,1,1.062.5,5.6,5.6,0,0,1,.4,2.728V631.1q0,4.158-.458,4.871a1.366,1.366,0,0,1-.769.586,11.257,11.257,0,0,1-2.49.366,0.449,0.449,0,0,0-.367.549c0,0.355.086,0.531,0.257,0.531q3.7-.145,5.4-0.146,1.959,0,5.292.146c0.171,0,.256-0.176.256-0.531a0.446,0.446,0,0,0-.329-0.549q-3-.219-3.406-0.952a3.043,3.043,0,0,1-.366-1.19q-0.091-.861-0.092-3.681V619.707q0-3.113.183-8.038a0.486,0.486,0,0,0-.6-0.476,48.07,48.07,0,0,1-7.031,3.186h0ZM659.036,634.7a2.17,2.17,0,0,0-.733,1.721,2.1,2.1,0,0,0,.568,1.465,2.19,2.19,0,0,0,1.684.714,2.165,2.165,0,0,0,1.483-.568,2.048,2.048,0,0,0,.733-1.611,2.25,2.25,0,0,0-.586-1.575,2.094,2.094,0,0,0-1.63-.714,2.168,2.168,0,0,0-1.519.568h0Zm11.3-20.325a0.489,0.489,0,0,0-.421.366q0,0.751.476,0.751l1.648-.513a4.788,4.788,0,0,1,1.355-.275,1.239,1.239,0,0,1,1.062.5,5.6,5.6,0,0,1,.4,2.728V631.1q0,4.158-.458,4.871a1.366,1.366,0,0,1-.769.586,11.257,11.257,0,0,1-2.49.366,0.448,0.448,0,0,0-.366.549c0,0.355.085,0.531,0.256,0.531q3.7-.145,5.4-0.146,1.959,0,5.291.146c0.171,0,.257-0.176.257-0.531a0.446,0.446,0,0,0-.33-0.549q-3-.219-3.406-0.952a3.043,3.043,0,0,1-.366-1.19q-0.091-.861-0.091-3.681V619.707q0-3.113.183-8.038a0.486,0.486,0,0,0-.605-0.476,48.07,48.07,0,0,1-7.031,3.186h0Zm27.081,9.411Q703,622.382,703,617.6a5.744,5.744,0,0,0-1.758-4.339,7.4,7.4,0,0,0-5.328-1.886,8.255,8.255,0,0,0-4.871,1.538q-2.435,1.722-2.435,3.827a0.989,0.989,0,0,0,1.154,1.08,3.115,3.115,0,0,0,1.666-.439,1.523,1.523,0,0,0,.806-1.319,4.125,4.125,0,0,1,.384-1.886,3.393,3.393,0,0,1,3.3-1.648,3.6,3.6,0,0,1,2.783,1.136,5.746,5.746,0,0,1,1.19,3.936,6.4,6.4,0,0,1-1.19,3.974,4.362,4.362,0,0,1-3.644,1.758l-1.281-.11q-0.787,0-.788,1.117a0.389,0.389,0,0,0,.458.421l1.978-.11a4.853,4.853,0,0,1,3.607,1.428,6.2,6.2,0,0,1,1.611,4.523,8.663,8.663,0,0,1-1.19,4.871,4.321,4.321,0,0,1-3.79,1.959,3.53,3.53,0,0,1-3.534-2.252l-0.183-.44q-0.861-2.142-1.722-2.142a2.827,2.827,0,0,0-1.538.4,1.385,1.385,0,0,0-.714,1.172q0,1.556,2.362,3a9.842,9.842,0,0,0,5.329,1.465,8.531,8.531,0,0,0,5.694-1.867,7.529,7.529,0,0,0,2.545-6.043,6.277,6.277,0,0,0-1.5-4.248,8.214,8.214,0,0,0-4.981-2.545V623.79Zm27.283,8.075,0.037-.2a0.312,0.312,0,0,0-.22-0.238,1.036,1.036,0,0,0-.494-0.128,0.338,0.338,0,0,0-.293.256,7.1,7.1,0,0,1-2.033,2.93,3.1,3.1,0,0,1-1.336.586,19.38,19.38,0,0,1-3.425.2h-6.225A39.686,39.686,0,0,1,718,627.013l1.154-1.044a19.924,19.924,0,0,0,3.626-4.01,7.734,7.734,0,0,0,1.062-4.138,5.884,5.884,0,0,0-1.886-4.5,7.746,7.746,0,0,0-5.494-1.941,8.07,8.07,0,0,0-5.108,1.831q-2.582,2.05-2.582,4.431a1.1,1.1,0,0,0,1.154,1.318,3.182,3.182,0,0,0,1.7-.439,1.439,1.439,0,0,0,.861-1.245,6.855,6.855,0,0,1,.366-2.655,3.705,3.705,0,0,1,3.607-2.069,3.62,3.62,0,0,1,2.747,1.117,5.618,5.618,0,0,1,1.3,4.01,7.63,7.63,0,0,1-.677,3.2,24.141,24.141,0,0,1-3.608,5.164l-0.714.824q-3.277,3.936-7.049,9.484a1.7,1.7,0,0,0-.257.934q0,0.714.458,0.714,3.516-.11,7.05-0.109,3.588,0,7.159.109,0.915-2.654,1.831-6.134h0Zm6.665-17.541q-2.711,3.7-2.71,10.858,0,6.1,1.978,9.613a6.806,6.806,0,0,0,6.207,3.845,6.477,6.477,0,0,0,5.438-3q2.655-3.7,2.655-10.693,0-6.1-2.16-9.741-2.253-3.826-5.933-3.827a6.572,6.572,0,0,0-5.475,2.948h0Zm10.236,10.73q0,6.225-1.135,9.283-1.155,3.132-3.626,3.131a3.67,3.67,0,0,1-3.387-2.38q-1.466-2.967-1.465-10.034,0-12.525,4.852-12.525,4.761,0,4.761,12.525h0Zm15.088-9.284q-0.623,4.322-3.443,5.732a8.428,8.428,0,0,1-3.131.714,0.253,0.253,0,0,0-.256.311,0.9,0.9,0,0,0,.146.366,0.742,0.742,0,0,0,.605.348,12.849,12.849,0,0,0,3.863-1.428q4.5-2.416,4.5-7.965a5.71,5.71,0,0,0-1.319-3.882,4.813,4.813,0,0,0-3.863-1.7,5.16,5.16,0,0,0-3.443,1.19,4.394,4.394,0,0,0-1.648,3.534,4.305,4.305,0,0,0,1.1,3.04,4.67,4.67,0,0,0,3.589,1.391,3.657,3.657,0,0,0,1.611-.4,3.83,3.83,0,0,0,1.5-1.246h0.183Zm-0.916-5.621a5.691,5.691,0,0,1,.879,3.369,2.4,2.4,0,0,1-.293,1.209,2.98,2.98,0,0,1-2.563,1.684,2.383,2.383,0,0,1-1.886-.842,4.029,4.029,0,0,1-.843-2.728,4.735,4.735,0,0,1,.641-2.582,2.409,2.409,0,0,1,4.065-.11h0Zm23.456,21.716,0.037-.2a0.314,0.314,0,0,0-.22-0.238,1.037,1.037,0,0,0-.5-0.128,0.337,0.337,0,0,0-.292.256,7.1,7.1,0,0,1-2.033,2.93,3.093,3.093,0,0,1-1.337.586,19.359,19.359,0,0,1-3.424.2h-6.225a39.628,39.628,0,0,1,7.287-8.258l1.154-1.044a19.882,19.882,0,0,0,3.625-4.01,7.725,7.725,0,0,0,1.062-4.138,5.881,5.881,0,0,0-1.886-4.5,7.742,7.742,0,0,0-5.493-1.941,8.07,8.07,0,0,0-5.108,1.831q-2.583,2.05-2.582,4.431a1.1,1.1,0,0,0,1.153,1.318,3.183,3.183,0,0,0,1.7-.439,1.439,1.439,0,0,0,.861-1.245,6.855,6.855,0,0,1,.366-2.655,3.705,3.705,0,0,1,3.607-2.069,3.62,3.62,0,0,1,2.747,1.117,5.623,5.623,0,0,1,1.3,4.01,7.615,7.615,0,0,1-.678,3.2,24.129,24.129,0,0,1-3.607,5.164l-0.714.824q-3.277,3.936-7.049,9.484a1.694,1.694,0,0,0-.257.934q0,0.714.458,0.714,3.516-.11,7.049-0.109,3.59,0,7.16.109,0.915-2.654,1.831-6.134h0Zm13.367-8.075q5.585-1.409,5.584-6.189a5.747,5.747,0,0,0-1.757-4.339,7.4,7.4,0,0,0-5.329-1.886,8.25,8.25,0,0,0-4.87,1.538q-2.436,1.722-2.436,3.827a0.989,0.989,0,0,0,1.154,1.08,3.115,3.115,0,0,0,1.666-.439,1.523,1.523,0,0,0,.806-1.319,4.125,4.125,0,0,1,.384-1.886,3.393,3.393,0,0,1,3.3-1.648,3.6,3.6,0,0,1,2.783,1.136,5.746,5.746,0,0,1,1.191,3.936,6.4,6.4,0,0,1-1.191,3.974,4.362,4.362,0,0,1-3.643,1.758l-1.282-.11q-0.788,0-.787,1.117a0.389,0.389,0,0,0,.457.421l1.978-.11a4.851,4.851,0,0,1,3.607,1.428,6.2,6.2,0,0,1,1.611,4.523,8.655,8.655,0,0,1-1.19,4.871,4.32,4.32,0,0,1-3.79,1.959,3.531,3.531,0,0,1-3.534-2.252l-0.183-.44q-0.861-2.142-1.721-2.142a2.825,2.825,0,0,0-1.538.4,1.384,1.384,0,0,0-.715,1.172q0,1.556,2.362,3a9.842,9.842,0,0,0,5.329,1.465,8.531,8.531,0,0,0,5.694-1.867,7.53,7.53,0,0,0,2.546-6.043,6.278,6.278,0,0,0-1.5-4.248,8.211,8.211,0,0,0-4.98-2.545V623.79Zm13.623-9.466q-2.711,3.7-2.71,10.858,0,6.1,1.977,9.613a6.808,6.808,0,0,0,6.208,3.845,6.478,6.478,0,0,0,5.438-3q2.655-3.7,2.655-10.693,0-6.1-2.161-9.741-2.252-3.826-5.932-3.827a6.57,6.57,0,0,0-5.475,2.948h0Zm10.235,10.73q0,6.225-1.135,9.283-1.154,3.132-3.625,3.131a3.671,3.671,0,0,1-3.388-2.38q-1.465-2.967-1.465-10.034,0-12.525,4.853-12.525,4.76,0,4.76,12.525h0Zm16.864-10.144q1.153,0,4.285.073a0.4,0.4,0,0,0,.4-0.256l0.9-2.454a0.291,0.291,0,0,0-.33-0.329q-3.021.183-6,.183-4.047,0-5.549-.037a0.606,0.606,0,0,0-.4.22,0.7,0.7,0,0,0-.238.494L825.369,624.4a6.827,6.827,0,0,1-.11.879,3.275,3.275,0,0,0-.074.421q0,0.6,1.044.6a0.617,0.617,0,0,0,.531-0.293,5.114,5.114,0,0,1,4.614-2.71,4.185,4.185,0,0,1,3.26,1.52,7.354,7.354,0,0,1,1.648,5.072,10.4,10.4,0,0,1-1.209,5.438,4.185,4.185,0,0,1-3.772,2.142,3.4,3.4,0,0,1-3.424-2.124l-0.183-.457a7.35,7.35,0,0,0-.861-1.63,1.024,1.024,0,0,0-.86-0.439,2.578,2.578,0,0,0-1.483.421,1.3,1.3,0,0,0-.7,1.08q0,1.685,2.508,3.04a10.233,10.233,0,0,0,4.981,1.281,7.954,7.954,0,0,0,5.621-2.087,8.708,8.708,0,0,0,2.637-6.7,8.218,8.218,0,0,0-1.776-5.456,7.114,7.114,0,0,0-5.75-2.454,6.572,6.572,0,0,0-5.218,2.252q0.091-1.189.146-1.941l0.641-7.342h5.731Zm13.55-.586q-2.711,3.7-2.71,10.858,0,6.1,1.978,9.613a6.806,6.806,0,0,0,6.207,3.845,6.477,6.477,0,0,0,5.438-3q2.655-3.7,2.655-10.693,0-6.1-2.16-9.741-2.253-3.826-5.933-3.827a6.572,6.572,0,0,0-5.475,2.948h0Zm10.236,10.73q0,6.225-1.136,9.283-1.154,3.132-3.625,3.131a3.67,3.67,0,0,1-3.387-2.38q-1.466-2.967-1.465-10.034,0-12.525,4.852-12.525,4.761,0,4.761,12.525h0Zm10.034-10.675a0.489,0.489,0,0,0-.421.366q0,0.751.476,0.751l1.648-.513a4.782,4.782,0,0,1,1.355-.275,1.24,1.24,0,0,1,1.062.5,5.6,5.6,0,0,1,.4,2.728V631.1q0,4.158-.458,4.871a1.366,1.366,0,0,1-.769.586,11.257,11.257,0,0,1-2.49.366,0.449,0.449,0,0,0-.367.549c0,0.355.086,0.531,0.257,0.531q3.7-.145,5.4-0.146,1.959,0,5.292.146c0.171,0,.256-0.176.256-0.531s-0.109-.524-0.329-0.549q-3-.219-3.406-0.952a3.043,3.043,0,0,1-.366-1.19q-0.091-.861-0.092-3.681V619.707q0-3.113.183-8.038a0.486,0.486,0,0,0-.6-0.476,48.07,48.07,0,0,1-7.031,3.186h0Zm-145.2-89.393a6.689,6.689,0,0,0-.794,3.547,7.24,7.24,0,0,0,.58,3.155,2.108,2.108,0,0,0,1.947,1.373,2,2,0,0,0,1.74-1.1,6.673,6.673,0,0,0,.781-3.5,7.059,7.059,0,0,0-.616-3.149,2.137,2.137,0,0,0-1.9-1.416,2,2,0,0,0-1.733,1.092h0Zm3.442,3.51q0,4.206-1.709,4.205t-1.715-4.205q0-4.242,1.715-4.242t1.709,4.242h0Zm6.433,4.211a0.127,0.127,0,0,0-.109-0.146,1.43,1.43,0,0,1-1.1-.391,1.065,1.065,0,0,1-.122-0.409q-0.031-.262-0.031-1.263v-3.815q0-.677.049-2.7a0.151,0.151,0,0,0-.189-0.146,17.283,17.283,0,0,1-2.039.922,0.166,0.166,0,0,0-.128.116,0.3,0.3,0,0,0,.018.085,0.119,0.119,0,0,0,.1.11,0.59,0.59,0,0,0,.11-0.018l0.494-.153a1.456,1.456,0,0,1,.4-0.073,0.464,0.464,0,0,1,.4.213,2.81,2.81,0,0,1,.11,1.05V530.5a4.568,4.568,0,0,1-.165,1.672,0.645,0.645,0,0,1-.366.281,2.858,2.858,0,0,1-.671.11,0.126,0.126,0,0,0-.122.146,0.117,0.117,0,0,0,.122.141q1.47-.037,1.568-0.037l1.551,0.037a0.113,0.113,0,0,0,.109-0.141h0Zm2.625-7.721a6.689,6.689,0,0,0-.794,3.547,7.24,7.24,0,0,0,.58,3.155,2.108,2.108,0,0,0,1.947,1.373,2,2,0,0,0,1.74-1.1,6.673,6.673,0,0,0,.781-3.5,7.059,7.059,0,0,0-.616-3.149,2.137,2.137,0,0,0-1.9-1.416,2,2,0,0,0-1.733,1.092h0Zm3.442,3.51q0,4.206-1.709,4.205t-1.715-4.205q0-4.242,1.715-4.242t1.709,4.242h0Zm2.808-3.51a6.689,6.689,0,0,0-.794,3.547,7.24,7.24,0,0,0,.58,3.155,2.108,2.108,0,0,0,1.947,1.373,2,2,0,0,0,1.74-1.1,6.673,6.673,0,0,0,.781-3.5,7.059,7.059,0,0,0-.616-3.149,2.137,2.137,0,0,0-1.9-1.416,2,2,0,0,0-1.733,1.092h0Zm3.442,3.51q0,4.206-1.709,4.205t-1.715-4.205q0-4.242,1.715-4.242t1.709,4.242h0Zm6.433,4.211a0.127,0.127,0,0,0-.109-0.146,1.43,1.43,0,0,1-1.1-.391,1.065,1.065,0,0,1-.122-0.409Q749.2,531.5,749.2,530.5v-3.815q0-.677.049-2.7a0.151,0.151,0,0,0-.189-0.146,17.283,17.283,0,0,1-2.039.922,0.166,0.166,0,0,0-.128.116,0.3,0.3,0,0,0,.018.085,0.119,0.119,0,0,0,.1.11,0.59,0.59,0,0,0,.11-0.018l0.494-.153a1.456,1.456,0,0,1,.4-0.073,0.464,0.464,0,0,1,.4.213,2.81,2.81,0,0,1,.11,1.05V530.5a4.568,4.568,0,0,1-.165,1.672,0.645,0.645,0,0,1-.366.281,2.858,2.858,0,0,1-.671.11,0.126,0.126,0,0,0-.122.146,0.117,0.117,0,0,0,.122.141q1.47-.037,1.568-0.037l1.551,0.037a0.113,0.113,0,0,0,.109-0.141h0Zm2.625-7.721a6.689,6.689,0,0,0-.794,3.547,7.24,7.24,0,0,0,.58,3.155,2.108,2.108,0,0,0,1.947,1.373,2,2,0,0,0,1.74-1.1,6.673,6.673,0,0,0,.781-3.5,7.059,7.059,0,0,0-.616-3.149,2.137,2.137,0,0,0-1.9-1.416,2,2,0,0,0-1.733,1.092h0Zm3.442,3.51q0,4.206-1.709,4.205t-1.715-4.205q0-4.242,1.715-4.242t1.709,4.242h0Zm6.433,4.211a0.127,0.127,0,0,0-.109-0.146,1.43,1.43,0,0,1-1.1-.391,1.065,1.065,0,0,1-.122-0.409Q761.7,531.5,761.7,530.5v-3.815q0-.677.049-2.7a0.151,0.151,0,0,0-.189-0.146,17.283,17.283,0,0,1-2.039.922,0.166,0.166,0,0,0-.128.116,0.3,0.3,0,0,0,.018.085,0.119,0.119,0,0,0,.1.11,0.59,0.59,0,0,0,.11-0.018l0.494-.153a1.456,1.456,0,0,1,.4-0.073,0.464,0.464,0,0,1,.4.213,2.81,2.81,0,0,1,.11,1.05V530.5a4.568,4.568,0,0,1-.165,1.672,0.645,0.645,0,0,1-.366.281,2.858,2.858,0,0,1-.671.11,0.126,0.126,0,0,0-.122.146,0.117,0.117,0,0,0,.122.141q1.47-.037,1.568-0.037l1.551,0.037a0.113,0.113,0,0,0,.109-0.141h0Zm2.625-7.721a6.689,6.689,0,0,0-.794,3.547,7.24,7.24,0,0,0,.58,3.155,2.108,2.108,0,0,0,1.947,1.373,2,2,0,0,0,1.74-1.1,6.673,6.673,0,0,0,.781-3.5,7.059,7.059,0,0,0-.616-3.149,2.137,2.137,0,0,0-1.9-1.416,2,2,0,0,0-1.733,1.092h0Zm3.442,3.51q0,4.206-1.709,4.205t-1.715-4.205q0-4.242,1.715-4.242t1.709,4.242h0Zm6.97-3.51a6.69,6.69,0,0,0-.793,3.547,7.226,7.226,0,0,0,.58,3.155,2.106,2.106,0,0,0,1.947,1.373,2,2,0,0,0,1.739-1.1,6.673,6.673,0,0,0,.782-3.5,7.058,7.058,0,0,0-.617-3.149,2.136,2.136,0,0,0-1.9-1.416,2,2,0,0,0-1.734,1.092h0Zm3.443,3.51q0,4.206-1.709,4.205t-1.715-4.205q0-4.242,1.715-4.242t1.709,4.242h0Zm6.433,4.211a0.128,0.128,0,0,0-.11-0.146,1.43,1.43,0,0,1-1.1-.391,1.082,1.082,0,0,1-.122-0.409q-0.03-.262-0.03-1.263v-3.815q0-.677.049-2.7a0.151,0.151,0,0,0-.189-0.146,17.357,17.357,0,0,1-2.039.922,0.164,0.164,0,0,0-.128.116,0.3,0.3,0,0,0,.018.085,0.118,0.118,0,0,0,.1.11,0.6,0.6,0,0,0,.11-0.018l0.494-.153a1.456,1.456,0,0,1,.4-0.073,0.464,0.464,0,0,1,.4.213,2.81,2.81,0,0,1,.11,1.05V530.5a4.568,4.568,0,0,1-.165,1.672,0.652,0.652,0,0,1-.366.281,2.879,2.879,0,0,1-.672.11,0.127,0.127,0,0,0-.122.146,0.117,0.117,0,0,0,.122.141q1.471-.037,1.569-0.037l1.55,0.037a0.113,0.113,0,0,0,.11-0.141h0Zm2.624-7.721a6.69,6.69,0,0,0-.793,3.547,7.226,7.226,0,0,0,.58,3.155,2.106,2.106,0,0,0,1.947,1.373,2,2,0,0,0,1.739-1.1,6.673,6.673,0,0,0,.782-3.5,7.058,7.058,0,0,0-.617-3.149,2.136,2.136,0,0,0-1.9-1.416,2,2,0,0,0-1.734,1.092h0Zm3.443,3.51q0,4.206-1.709,4.205t-1.715-4.205q0-4.242,1.715-4.242t1.709,4.242h0Zm2.807-3.51a6.69,6.69,0,0,0-.793,3.547,7.226,7.226,0,0,0,.58,3.155,2.106,2.106,0,0,0,1.947,1.373,2,2,0,0,0,1.739-1.1,6.673,6.673,0,0,0,.782-3.5,7.058,7.058,0,0,0-.617-3.149,2.136,2.136,0,0,0-1.9-1.416,2,2,0,0,0-1.734,1.092h0Zm3.443,3.51q0,4.206-1.709,4.205t-1.715-4.205q0-4.242,1.715-4.242t1.709,4.242h0Zm6.433,4.211a0.128,0.128,0,0,0-.11-0.146,1.43,1.43,0,0,1-1.1-.391,1.082,1.082,0,0,1-.122-0.409q-0.03-.262-0.03-1.263v-3.815q0-.677.049-2.7a0.151,0.151,0,0,0-.189-0.146,17.357,17.357,0,0,1-2.039.922,0.164,0.164,0,0,0-.128.116,0.3,0.3,0,0,0,.018.085,0.118,0.118,0,0,0,.1.11,0.6,0.6,0,0,0,.11-0.018l0.494-.153a1.456,1.456,0,0,1,.4-0.073,0.464,0.464,0,0,1,.4.213,2.81,2.81,0,0,1,.11,1.05V530.5a4.568,4.568,0,0,1-.165,1.672,0.652,0.652,0,0,1-.366.281,2.879,2.879,0,0,1-.672.11,0.127,0.127,0,0,0-.122.146,0.117,0.117,0,0,0,.122.141q1.471-.037,1.569-0.037l1.55,0.037a0.113,0.113,0,0,0,.11-0.141h0Zm2.624-7.721a6.69,6.69,0,0,0-.793,3.547,7.226,7.226,0,0,0,.58,3.155,2.106,2.106,0,0,0,1.947,1.373,2,2,0,0,0,1.739-1.1,6.673,6.673,0,0,0,.782-3.5,7.058,7.058,0,0,0-.617-3.149,2.136,2.136,0,0,0-1.9-1.416,2,2,0,0,0-1.734,1.092h0Zm3.443,3.51q0,4.206-1.709,4.205t-1.715-4.205q0-4.242,1.715-4.242t1.709,4.242h0Zm2.807-3.51a6.69,6.69,0,0,0-.793,3.547,7.226,7.226,0,0,0,.58,3.155,2.106,2.106,0,0,0,1.947,1.373,2,2,0,0,0,1.739-1.1,6.673,6.673,0,0,0,.782-3.5,7.058,7.058,0,0,0-.617-3.149,2.136,2.136,0,0,0-1.9-1.416,2,2,0,0,0-1.734,1.092h0Zm3.443,3.51q0,4.206-1.709,4.205t-1.715-4.205q0-4.242,1.715-4.242t1.709,4.242h0Zm6.433,4.211a0.128,0.128,0,0,0-.11-0.146,1.43,1.43,0,0,1-1.1-.391,1.082,1.082,0,0,1-.122-0.409q-0.03-.262-0.03-1.263v-3.815q0-.677.049-2.7a0.151,0.151,0,0,0-.189-0.146,17.357,17.357,0,0,1-2.039.922,0.164,0.164,0,0,0-.128.116,0.3,0.3,0,0,0,.018.085,0.118,0.118,0,0,0,.1.11,0.6,0.6,0,0,0,.11-0.018l0.494-.153a1.456,1.456,0,0,1,.4-0.073,0.464,0.464,0,0,1,.4.213,2.81,2.81,0,0,1,.11,1.05V530.5a4.568,4.568,0,0,1-.165,1.672,0.652,0.652,0,0,1-.366.281,2.879,2.879,0,0,1-.672.11,0.127,0.127,0,0,0-.122.146,0.117,0.117,0,0,0,.122.141q1.471-.037,1.569-0.037l1.55,0.037a0.113,0.113,0,0,0,.11-0.141h0Zm6.787-7.721a6.69,6.69,0,0,0-.793,3.547,7.241,7.241,0,0,0,.579,3.155A2.108,2.108,0,0,0,832,533.061a2,2,0,0,0,1.74-1.1,6.673,6.673,0,0,0,.781-3.5,7.059,7.059,0,0,0-.616-3.149,2.136,2.136,0,0,0-1.9-1.416,2,2,0,0,0-1.733,1.092h0Zm3.442,3.51q0,4.206-1.709,4.205t-1.715-4.205q0-4.242,1.715-4.242t1.709,4.242h0Zm6.434,4.211a0.128,0.128,0,0,0-.11-0.146,1.43,1.43,0,0,1-1.1-.391,1.065,1.065,0,0,1-.122-0.409q-0.03-.262-0.031-1.263v-3.815q0-.677.049-2.7a0.151,0.151,0,0,0-.189-0.146,17.342,17.342,0,0,1-2.038.922,0.166,0.166,0,0,0-.129.116,0.276,0.276,0,0,0,.019.085,0.118,0.118,0,0,0,.1.11,0.59,0.59,0,0,0,.11-0.018l0.5-.153a1.45,1.45,0,0,1,.4-0.073,0.462,0.462,0,0,1,.4.213,2.788,2.788,0,0,1,.11,1.05V530.5a4.568,4.568,0,0,1-.165,1.672,0.645,0.645,0,0,1-.366.281,2.858,2.858,0,0,1-.671.11,0.126,0.126,0,0,0-.122.146,0.117,0.117,0,0,0,.122.141q1.47-.037,1.568-0.037l1.551,0.037a0.113,0.113,0,0,0,.11-0.141h0Zm2.624-7.721a6.69,6.69,0,0,0-.793,3.547,7.241,7.241,0,0,0,.579,3.155,2.108,2.108,0,0,0,1.947,1.373,2,2,0,0,0,1.74-1.1,6.673,6.673,0,0,0,.781-3.5,7.059,7.059,0,0,0-.616-3.149,2.136,2.136,0,0,0-1.9-1.416,2,2,0,0,0-1.733,1.092h0Zm3.442,3.51q0,4.206-1.709,4.205t-1.715-4.205q0-4.242,1.715-4.242t1.709,4.242h0Zm2.808-3.51a6.69,6.69,0,0,0-.793,3.547,7.241,7.241,0,0,0,.579,3.155,2.108,2.108,0,0,0,1.947,1.373,2,2,0,0,0,1.74-1.1,6.673,6.673,0,0,0,.781-3.5,7.059,7.059,0,0,0-.616-3.149,2.136,2.136,0,0,0-1.9-1.416,2,2,0,0,0-1.733,1.092h0Zm3.442,3.51q0,4.206-1.709,4.205t-1.715-4.205q0-4.242,1.715-4.242t1.709,4.242h0Zm6.434,4.211a0.128,0.128,0,0,0-.11-0.146,1.43,1.43,0,0,1-1.1-.391,1.065,1.065,0,0,1-.122-0.409q-0.03-.262-0.031-1.263v-3.815q0-.677.049-2.7a0.151,0.151,0,0,0-.189-0.146,17.342,17.342,0,0,1-2.038.922,0.166,0.166,0,0,0-.129.116,0.276,0.276,0,0,0,.019.085,0.118,0.118,0,0,0,.1.11,0.59,0.59,0,0,0,.11-0.018l0.5-.153a1.45,1.45,0,0,1,.4-0.073,0.462,0.462,0,0,1,.4.213,2.788,2.788,0,0,1,.11,1.05V530.5a4.568,4.568,0,0,1-.165,1.672,0.645,0.645,0,0,1-.366.281,2.858,2.858,0,0,1-.671.11,0.126,0.126,0,0,0-.122.146,0.117,0.117,0,0,0,.122.141q1.47-.037,1.568-0.037l1.551,0.037a0.113,0.113,0,0,0,.11-0.141h0Zm6.25,0a0.128,0.128,0,0,0-.11-0.146,1.43,1.43,0,0,1-1.1-.391,1.065,1.065,0,0,1-.122-0.409q-0.03-.262-0.031-1.263v-3.815q0-.677.049-2.7a0.151,0.151,0,0,0-.189-0.146,17.342,17.342,0,0,1-2.038.922,0.166,0.166,0,0,0-.129.116,0.276,0.276,0,0,0,.019.085,0.118,0.118,0,0,0,.1.11,0.59,0.59,0,0,0,.11-0.018l0.5-.153a1.45,1.45,0,0,1,.4-0.073,0.462,0.462,0,0,1,.4.213,2.788,2.788,0,0,1,.11,1.05V530.5a4.568,4.568,0,0,1-.165,1.672,0.645,0.645,0,0,1-.366.281,2.858,2.858,0,0,1-.671.11,0.126,0.126,0,0,0-.122.146,0.117,0.117,0,0,0,.122.141q1.47-.037,1.568-0.037l1.551,0.037a0.113,0.113,0,0,0,.11-0.141h0Zm6.25,0a0.128,0.128,0,0,0-.11-0.146,1.43,1.43,0,0,1-1.1-.391,1.065,1.065,0,0,1-.122-0.409q-0.03-.262-0.031-1.263v-3.815q0-.677.049-2.7a0.151,0.151,0,0,0-.189-0.146,17.342,17.342,0,0,1-2.038.922,0.166,0.166,0,0,0-.129.116,0.276,0.276,0,0,0,.019.085,0.118,0.118,0,0,0,.1.11,0.59,0.59,0,0,0,.11-0.018l0.5-.153a1.45,1.45,0,0,1,.4-0.073,0.462,0.462,0,0,1,.4.213,2.788,2.788,0,0,1,.11,1.05V530.5a4.568,4.568,0,0,1-.165,1.672,0.645,0.645,0,0,1-.366.281,2.858,2.858,0,0,1-.671.11,0.126,0.126,0,0,0-.122.146,0.117,0.117,0,0,0,.122.141q1.47-.037,1.568-0.037l1.551,0.037a0.113,0.113,0,0,0,.11-0.141h0Zm2.624-7.721a6.69,6.69,0,0,0-.793,3.547,7.241,7.241,0,0,0,.579,3.155,2.108,2.108,0,0,0,1.947,1.373,2,2,0,0,0,1.74-1.1,6.673,6.673,0,0,0,.781-3.5,7.059,7.059,0,0,0-.616-3.149,2.136,2.136,0,0,0-1.9-1.416,2,2,0,0,0-1.733,1.092h0Zm3.442,3.51q0,4.206-1.709,4.205t-1.715-4.205q0-4.242,1.715-4.242t1.709,4.242h0Zm-210.867,21.49a6.69,6.69,0,0,0-.793,3.547,7.226,7.226,0,0,0,.58,3.155,2.106,2.106,0,0,0,1.947,1.373,2,2,0,0,0,1.739-1.1,6.673,6.673,0,0,0,.781-3.5,7.059,7.059,0,0,0-.616-3.149,2.136,2.136,0,0,0-1.9-1.416,2,2,0,0,0-1.734,1.092h0Zm3.443,3.51q0,4.206-1.709,4.205t-1.715-4.205q0-4.242,1.715-4.242t1.709,4.242h0Zm6.433,4.211a0.128,0.128,0,0,0-.11-0.146,1.43,1.43,0,0,1-1.1-.391,1.065,1.065,0,0,1-.122-0.409q-0.03-.262-0.03-1.263v-3.815q0-.677.049-2.7a0.152,0.152,0,0,0-.19-0.146,17.342,17.342,0,0,1-2.038.922,0.164,0.164,0,0,0-.128.116,0.3,0.3,0,0,0,.018.085,0.118,0.118,0,0,0,.1.11,0.584,0.584,0,0,0,.109-0.018l0.5-.153a1.456,1.456,0,0,1,.4-0.073,0.464,0.464,0,0,1,.4.213,2.819,2.819,0,0,1,.109,1.05V555.5a4.6,4.6,0,0,1-.164,1.672,0.651,0.651,0,0,1-.367.281,2.858,2.858,0,0,1-.671.11,0.127,0.127,0,0,0-.122.146,0.117,0.117,0,0,0,.122.141c0.981-.025,1.5-0.037,1.569-0.037l1.55,0.037a0.113,0.113,0,0,0,.11-0.141h0Zm2.624-7.721a6.69,6.69,0,0,0-.793,3.547,7.226,7.226,0,0,0,.58,3.155,2.106,2.106,0,0,0,1.947,1.373,2,2,0,0,0,1.739-1.1,6.673,6.673,0,0,0,.781-3.5,7.059,7.059,0,0,0-.616-3.149,2.136,2.136,0,0,0-1.9-1.416,2,2,0,0,0-1.734,1.092h0Zm3.443,3.51q0,4.206-1.709,4.205t-1.715-4.205q0-4.242,1.715-4.242t1.709,4.242h0Zm2.807-3.51a6.69,6.69,0,0,0-.793,3.547,7.226,7.226,0,0,0,.58,3.155,2.106,2.106,0,0,0,1.947,1.373,2,2,0,0,0,1.739-1.1,6.673,6.673,0,0,0,.781-3.5,7.059,7.059,0,0,0-.616-3.149,2.136,2.136,0,0,0-1.9-1.416,2,2,0,0,0-1.734,1.092h0Zm3.443,3.51q0,4.206-1.709,4.205t-1.715-4.205q0-4.242,1.715-4.242t1.709,4.242h0Zm2.807-3.51a6.69,6.69,0,0,0-.793,3.547,7.226,7.226,0,0,0,.58,3.155,2.106,2.106,0,0,0,1.947,1.373,2,2,0,0,0,1.739-1.1,6.673,6.673,0,0,0,.781-3.5,7.059,7.059,0,0,0-.616-3.149,2.136,2.136,0,0,0-1.9-1.416,2,2,0,0,0-1.734,1.092h0Zm3.443,3.51q0,4.206-1.709,4.205t-1.715-4.205q0-4.242,1.715-4.242t1.709,4.242h0Zm6.433,4.211a0.128,0.128,0,0,0-.11-0.146,1.43,1.43,0,0,1-1.1-.391,1.065,1.065,0,0,1-.122-0.409q-0.03-.262-0.03-1.263v-3.815q0-.677.049-2.7a0.152,0.152,0,0,0-.19-0.146,17.342,17.342,0,0,1-2.038.922,0.164,0.164,0,0,0-.128.116,0.3,0.3,0,0,0,.018.085,0.118,0.118,0,0,0,.1.11,0.584,0.584,0,0,0,.109-0.018l0.5-.153a1.456,1.456,0,0,1,.4-0.073,0.464,0.464,0,0,1,.4.213,2.819,2.819,0,0,1,.109,1.05V555.5a4.6,4.6,0,0,1-.164,1.672,0.651,0.651,0,0,1-.367.281,2.858,2.858,0,0,1-.671.11,0.127,0.127,0,0,0-.122.146,0.117,0.117,0,0,0,.122.141c0.981-.025,1.5-0.037,1.569-0.037l1.55,0.037a0.113,0.113,0,0,0,.11-0.141h0Zm2.624-7.721a6.69,6.69,0,0,0-.793,3.547,7.226,7.226,0,0,0,.58,3.155,2.106,2.106,0,0,0,1.947,1.373,2,2,0,0,0,1.739-1.1,6.673,6.673,0,0,0,.781-3.5,7.059,7.059,0,0,0-.616-3.149,2.136,2.136,0,0,0-1.9-1.416,2,2,0,0,0-1.734,1.092h0Zm3.443,3.51q0,4.206-1.709,4.205t-1.715-4.205q0-4.242,1.715-4.242t1.709,4.242h0Zm2.807-3.51a6.69,6.69,0,0,0-.793,3.547,7.226,7.226,0,0,0,.58,3.155,2.106,2.106,0,0,0,1.947,1.373,2,2,0,0,0,1.739-1.1,6.673,6.673,0,0,0,.781-3.5,7.059,7.059,0,0,0-.616-3.149,2.136,2.136,0,0,0-1.9-1.416,2,2,0,0,0-1.734,1.092h0Zm3.443,3.51q0,4.206-1.709,4.205t-1.715-4.205q0-4.242,1.715-4.242t1.709,4.242h0Zm6.97-3.51a6.689,6.689,0,0,0-.794,3.547,7.24,7.24,0,0,0,.58,3.155,2.108,2.108,0,0,0,1.947,1.373,2,2,0,0,0,1.74-1.1,6.673,6.673,0,0,0,.781-3.5,7.073,7.073,0,0,0-.616-3.149,2.137,2.137,0,0,0-1.9-1.416,2,2,0,0,0-1.733,1.092h0Zm3.442,3.51q0,4.206-1.709,4.205t-1.715-4.205q0-4.242,1.715-4.242t1.709,4.242h0Zm6.433,4.211a0.127,0.127,0,0,0-.11-0.146,1.429,1.429,0,0,1-1.1-.391,1.065,1.065,0,0,1-.122-0.409q-0.032-.262-0.031-1.263v-3.815q0-.677.049-2.7a0.151,0.151,0,0,0-.189-0.146,17.283,17.283,0,0,1-2.039.922,0.166,0.166,0,0,0-.128.116,0.3,0.3,0,0,0,.018.085,0.119,0.119,0,0,0,.1.11,0.59,0.59,0,0,0,.11-0.018l0.494-.153a1.456,1.456,0,0,1,.4-0.073,0.464,0.464,0,0,1,.4.213,2.81,2.81,0,0,1,.11,1.05V555.5a4.568,4.568,0,0,1-.165,1.672,0.645,0.645,0,0,1-.366.281,2.858,2.858,0,0,1-.671.11,0.126,0.126,0,0,0-.122.146,0.117,0.117,0,0,0,.122.141q1.47-.037,1.568-0.037l1.55,0.037a0.113,0.113,0,0,0,.11-0.141h0Zm2.625-7.721a6.689,6.689,0,0,0-.794,3.547,7.24,7.24,0,0,0,.58,3.155,2.108,2.108,0,0,0,1.947,1.373,2,2,0,0,0,1.74-1.1,6.673,6.673,0,0,0,.781-3.5,7.073,7.073,0,0,0-.616-3.149,2.137,2.137,0,0,0-1.9-1.416,2,2,0,0,0-1.733,1.092h0Zm3.442,3.51q0,4.206-1.709,4.205t-1.715-4.205q0-4.242,1.715-4.242t1.709,4.242h0Zm2.808-3.51a6.689,6.689,0,0,0-.794,3.547,7.24,7.24,0,0,0,.58,3.155,2.108,2.108,0,0,0,1.947,1.373,2,2,0,0,0,1.74-1.1,6.673,6.673,0,0,0,.781-3.5,7.073,7.073,0,0,0-.616-3.149,2.137,2.137,0,0,0-1.9-1.416,2,2,0,0,0-1.733,1.092h0Zm3.442,3.51q0,4.206-1.709,4.205t-1.715-4.205q0-4.242,1.715-4.242t1.709,4.242h0Zm6.433,4.211a0.127,0.127,0,0,0-.11-0.146,1.429,1.429,0,0,1-1.1-.391,1.065,1.065,0,0,1-.122-0.409q-0.032-.262-0.031-1.263v-3.815q0-.677.049-2.7a0.151,0.151,0,0,0-.189-0.146,17.283,17.283,0,0,1-2.039.922,0.166,0.166,0,0,0-.128.116,0.3,0.3,0,0,0,.018.085,0.119,0.119,0,0,0,.1.11,0.59,0.59,0,0,0,.11-0.018l0.494-.153a1.456,1.456,0,0,1,.4-0.073,0.464,0.464,0,0,1,.4.213,2.81,2.81,0,0,1,.11,1.05V555.5a4.568,4.568,0,0,1-.165,1.672,0.645,0.645,0,0,1-.366.281,2.858,2.858,0,0,1-.671.11,0.126,0.126,0,0,0-.122.146,0.117,0.117,0,0,0,.122.141q1.47-.037,1.568-0.037l1.55,0.037a0.113,0.113,0,0,0,.11-0.141h0Zm6.25,0a0.127,0.127,0,0,0-.11-0.146,1.429,1.429,0,0,1-1.1-.391,1.065,1.065,0,0,1-.122-0.409q-0.032-.262-0.031-1.263v-3.815q0-.677.049-2.7a0.151,0.151,0,0,0-.189-0.146,17.283,17.283,0,0,1-2.039.922,0.166,0.166,0,0,0-.128.116,0.3,0.3,0,0,0,.018.085,0.119,0.119,0,0,0,.1.11,0.59,0.59,0,0,0,.11-0.018l0.494-.153a1.456,1.456,0,0,1,.4-0.073,0.464,0.464,0,0,1,.4.213,2.81,2.81,0,0,1,.11,1.05V555.5a4.568,4.568,0,0,1-.165,1.672,0.645,0.645,0,0,1-.366.281,2.858,2.858,0,0,1-.671.11,0.126,0.126,0,0,0-.122.146,0.117,0.117,0,0,0,.122.141q1.47-.037,1.568-0.037l1.55,0.037a0.113,0.113,0,0,0,.11-0.141h0Zm6.25,0a0.127,0.127,0,0,0-.11-0.146,1.429,1.429,0,0,1-1.1-.391,1.065,1.065,0,0,1-.122-0.409q-0.032-.262-0.031-1.263v-3.815q0-.677.049-2.7a0.151,0.151,0,0,0-.189-0.146,17.283,17.283,0,0,1-2.039.922,0.166,0.166,0,0,0-.128.116,0.3,0.3,0,0,0,.018.085,0.119,0.119,0,0,0,.1.11,0.59,0.59,0,0,0,.11-0.018l0.494-.153a1.456,1.456,0,0,1,.4-0.073,0.464,0.464,0,0,1,.4.213,2.81,2.81,0,0,1,.11,1.05V555.5a4.568,4.568,0,0,1-.165,1.672,0.645,0.645,0,0,1-.366.281,2.858,2.858,0,0,1-.671.11,0.126,0.126,0,0,0-.122.146,0.117,0.117,0,0,0,.122.141q1.47-.037,1.568-0.037l1.55,0.037a0.113,0.113,0,0,0,.11-0.141h0Zm6.25,0a0.127,0.127,0,0,0-.11-0.146,1.429,1.429,0,0,1-1.1-.391,1.065,1.065,0,0,1-.122-0.409q-0.032-.262-0.031-1.263v-3.815q0-.677.049-2.7a0.151,0.151,0,0,0-.189-0.146,17.283,17.283,0,0,1-2.039.922,0.166,0.166,0,0,0-.128.116,0.3,0.3,0,0,0,.018.085,0.119,0.119,0,0,0,.1.11,0.59,0.59,0,0,0,.11-0.018l0.494-.153a1.456,1.456,0,0,1,.4-0.073,0.464,0.464,0,0,1,.4.213,2.81,2.81,0,0,1,.11,1.05V555.5a4.568,4.568,0,0,1-.165,1.672,0.645,0.645,0,0,1-.366.281,2.858,2.858,0,0,1-.671.11,0.126,0.126,0,0,0-.122.146,0.117,0.117,0,0,0,.122.141q1.47-.037,1.568-0.037l1.55,0.037a0.113,0.113,0,0,0,.11-0.141h0Zm6.787-7.721a6.69,6.69,0,0,0-.793,3.547,7.226,7.226,0,0,0,.58,3.155,2.106,2.106,0,0,0,1.947,1.373,2,2,0,0,0,1.739-1.1,6.673,6.673,0,0,0,.782-3.5,7.058,7.058,0,0,0-.617-3.149,2.136,2.136,0,0,0-1.9-1.416,2,2,0,0,0-1.734,1.092h0Zm3.443,3.51q0,4.206-1.709,4.205t-1.715-4.205q0-4.242,1.715-4.242t1.709,4.242h0Zm6.433,4.211a0.128,0.128,0,0,0-.11-0.146,1.43,1.43,0,0,1-1.1-.391,1.082,1.082,0,0,1-.122-0.409q-0.03-.262-0.03-1.263v-3.815q0-.677.049-2.7c0-.1-0.063-0.146-0.19-0.146a17.268,17.268,0,0,1-2.038.922,0.164,0.164,0,0,0-.128.116,0.3,0.3,0,0,0,.018.085,0.118,0.118,0,0,0,.1.11,0.6,0.6,0,0,0,.11-0.018l0.494-.153a1.456,1.456,0,0,1,.4-0.073,0.464,0.464,0,0,1,.4.213,2.81,2.81,0,0,1,.11,1.05V555.5a4.568,4.568,0,0,1-.165,1.672,0.652,0.652,0,0,1-.366.281,2.879,2.879,0,0,1-.672.11,0.127,0.127,0,0,0-.122.146,0.117,0.117,0,0,0,.122.141q1.472-.037,1.569-0.037l1.55,0.037a0.113,0.113,0,0,0,.11-0.141h0Zm2.624-7.721a6.69,6.69,0,0,0-.793,3.547,7.226,7.226,0,0,0,.58,3.155,2.106,2.106,0,0,0,1.947,1.373,2,2,0,0,0,1.739-1.1,6.673,6.673,0,0,0,.782-3.5,7.058,7.058,0,0,0-.617-3.149,2.136,2.136,0,0,0-1.9-1.416,2,2,0,0,0-1.734,1.092h0Zm3.443,3.51q0,4.206-1.709,4.205t-1.715-4.205q0-4.242,1.715-4.242t1.709,4.242h0Zm2.807-3.51a6.69,6.69,0,0,0-.793,3.547,7.226,7.226,0,0,0,.58,3.155,2.106,2.106,0,0,0,1.947,1.373,2,2,0,0,0,1.739-1.1,6.673,6.673,0,0,0,.782-3.5,7.058,7.058,0,0,0-.617-3.149,2.136,2.136,0,0,0-1.9-1.416,2,2,0,0,0-1.734,1.092h0Zm3.443,3.51q0,4.206-1.709,4.205t-1.715-4.205q0-4.242,1.715-4.242t1.709,4.242h0Zm6.433,4.211a0.128,0.128,0,0,0-.11-0.146,1.43,1.43,0,0,1-1.1-.391,1.082,1.082,0,0,1-.122-0.409q-0.03-.262-0.03-1.263v-3.815q0-.677.049-2.7c0-.1-0.063-0.146-0.19-0.146a17.268,17.268,0,0,1-2.038.922,0.164,0.164,0,0,0-.128.116,0.3,0.3,0,0,0,.018.085,0.118,0.118,0,0,0,.1.11,0.6,0.6,0,0,0,.11-0.018l0.494-.153a1.456,1.456,0,0,1,.4-0.073,0.464,0.464,0,0,1,.4.213,2.81,2.81,0,0,1,.11,1.05V555.5a4.568,4.568,0,0,1-.165,1.672,0.652,0.652,0,0,1-.366.281,2.879,2.879,0,0,1-.672.11,0.127,0.127,0,0,0-.122.146,0.117,0.117,0,0,0,.122.141q1.472-.037,1.569-0.037l1.55,0.037a0.113,0.113,0,0,0,.11-0.141h0Zm6.25,0a0.128,0.128,0,0,0-.11-0.146,1.43,1.43,0,0,1-1.1-.391,1.082,1.082,0,0,1-.122-0.409q-0.03-.262-0.03-1.263v-3.815q0-.677.049-2.7c0-.1-0.063-0.146-0.19-0.146a17.268,17.268,0,0,1-2.038.922,0.164,0.164,0,0,0-.128.116,0.3,0.3,0,0,0,.018.085,0.118,0.118,0,0,0,.1.11,0.6,0.6,0,0,0,.11-0.018l0.494-.153a1.456,1.456,0,0,1,.4-0.073,0.464,0.464,0,0,1,.4.213,2.81,2.81,0,0,1,.11,1.05V555.5a4.568,4.568,0,0,1-.165,1.672,0.652,0.652,0,0,1-.366.281,2.879,2.879,0,0,1-.672.11,0.127,0.127,0,0,0-.122.146,0.117,0.117,0,0,0,.122.141q1.472-.037,1.569-0.037l1.55,0.037a0.113,0.113,0,0,0,.11-0.141h0Zm2.624-7.721a6.69,6.69,0,0,0-.793,3.547,7.226,7.226,0,0,0,.58,3.155,2.106,2.106,0,0,0,1.947,1.373,2,2,0,0,0,1.739-1.1,6.673,6.673,0,0,0,.782-3.5,7.058,7.058,0,0,0-.617-3.149,2.136,2.136,0,0,0-1.9-1.416,2,2,0,0,0-1.734,1.092h0Zm3.443,3.51q0,4.206-1.709,4.205t-1.715-4.205q0-4.242,1.715-4.242t1.709,4.242h0Zm6.433,4.211a0.128,0.128,0,0,0-.11-0.146,1.43,1.43,0,0,1-1.1-.391,1.082,1.082,0,0,1-.122-0.409q-0.03-.262-0.03-1.263v-3.815q0-.677.049-2.7c0-.1-0.063-0.146-0.19-0.146a17.268,17.268,0,0,1-2.038.922,0.164,0.164,0,0,0-.128.116,0.3,0.3,0,0,0,.018.085,0.118,0.118,0,0,0,.1.11,0.6,0.6,0,0,0,.11-0.018l0.494-.153a1.456,1.456,0,0,1,.4-0.073,0.464,0.464,0,0,1,.4.213,2.81,2.81,0,0,1,.11,1.05V555.5a4.568,4.568,0,0,1-.165,1.672,0.652,0.652,0,0,1-.366.281,2.879,2.879,0,0,1-.672.11,0.127,0.127,0,0,0-.122.146,0.117,0.117,0,0,0,.122.141q1.472-.037,1.569-0.037l1.55,0.037a0.113,0.113,0,0,0,.11-0.141h0Zm6.787-7.721a6.69,6.69,0,0,0-.793,3.547,7.241,7.241,0,0,0,.579,3.155,2.108,2.108,0,0,0,1.947,1.373,2,2,0,0,0,1.74-1.1,6.673,6.673,0,0,0,.781-3.5,7.059,7.059,0,0,0-.616-3.149,2.136,2.136,0,0,0-1.905-1.416,2,2,0,0,0-1.733,1.092h0Zm3.442,3.51q0,4.206-1.709,4.205t-1.715-4.205q0-4.242,1.715-4.242t1.709,4.242h0Zm6.434,4.211a0.128,0.128,0,0,0-.11-0.146,1.43,1.43,0,0,1-1.1-.391,1.065,1.065,0,0,1-.122-0.409q-0.03-.262-0.031-1.263v-3.815q0-.677.049-2.7a0.151,0.151,0,0,0-.189-0.146,17.342,17.342,0,0,1-2.038.922,0.166,0.166,0,0,0-.129.116,0.276,0.276,0,0,0,.019.085,0.118,0.118,0,0,0,.1.11,0.59,0.59,0,0,0,.11-0.018l0.5-.153a1.45,1.45,0,0,1,.4-0.073,0.463,0.463,0,0,1,.4.213,2.788,2.788,0,0,1,.11,1.05V555.5a4.568,4.568,0,0,1-.165,1.672,0.645,0.645,0,0,1-.366.281,2.858,2.858,0,0,1-.671.11,0.126,0.126,0,0,0-.122.146,0.117,0.117,0,0,0,.122.141q1.47-.037,1.568-0.037l1.551,0.037a0.113,0.113,0,0,0,.11-0.141h0Zm2.624-7.721a6.69,6.69,0,0,0-.793,3.547,7.241,7.241,0,0,0,.579,3.155,2.108,2.108,0,0,0,1.947,1.373,2,2,0,0,0,1.74-1.1,6.673,6.673,0,0,0,.781-3.5,7.059,7.059,0,0,0-.616-3.149,2.136,2.136,0,0,0-1.905-1.416,2,2,0,0,0-1.733,1.092h0Zm3.442,3.51q0,4.206-1.709,4.205t-1.715-4.205q0-4.242,1.715-4.242t1.709,4.242h0Zm2.808-3.51a6.69,6.69,0,0,0-.793,3.547,7.241,7.241,0,0,0,.579,3.155,2.108,2.108,0,0,0,1.947,1.373,2,2,0,0,0,1.74-1.1,6.673,6.673,0,0,0,.781-3.5,7.059,7.059,0,0,0-.616-3.149,2.136,2.136,0,0,0-1.905-1.416,2,2,0,0,0-1.733,1.092h0Zm3.442,3.51q0,4.206-1.709,4.205t-1.715-4.205q0-4.242,1.715-4.242t1.709,4.242h0Zm6.434,4.211a0.128,0.128,0,0,0-.11-0.146,1.43,1.43,0,0,1-1.1-.391,1.065,1.065,0,0,1-.122-0.409q-0.03-.262-0.031-1.263v-3.815q0-.677.049-2.7a0.151,0.151,0,0,0-.189-0.146,17.342,17.342,0,0,1-2.038.922,0.166,0.166,0,0,0-.129.116,0.276,0.276,0,0,0,.019.085,0.118,0.118,0,0,0,.1.11,0.59,0.59,0,0,0,.11-0.018l0.5-.153a1.45,1.45,0,0,1,.4-0.073,0.463,0.463,0,0,1,.4.213,2.788,2.788,0,0,1,.11,1.05V555.5a4.568,4.568,0,0,1-.165,1.672,0.645,0.645,0,0,1-.366.281,2.858,2.858,0,0,1-.671.11,0.126,0.126,0,0,0-.122.146,0.117,0.117,0,0,0,.122.141q1.47-.037,1.568-0.037l1.551,0.037a0.113,0.113,0,0,0,.11-0.141h0Zm2.624-7.721a6.69,6.69,0,0,0-.793,3.547,7.241,7.241,0,0,0,.579,3.155,2.108,2.108,0,0,0,1.947,1.373,2,2,0,0,0,1.74-1.1,6.673,6.673,0,0,0,.781-3.5,7.059,7.059,0,0,0-.616-3.149,2.136,2.136,0,0,0-1.905-1.416,2,2,0,0,0-1.733,1.092h0Zm3.442,3.51q0,4.206-1.709,4.205t-1.715-4.205q0-4.242,1.715-4.242t1.709,4.242h0Zm2.808-3.51a6.69,6.69,0,0,0-.793,3.547,7.241,7.241,0,0,0,.579,3.155,2.108,2.108,0,0,0,1.947,1.373,2,2,0,0,0,1.74-1.1,6.673,6.673,0,0,0,.781-3.5,7.059,7.059,0,0,0-.616-3.149,2.136,2.136,0,0,0-1.905-1.416,2,2,0,0,0-1.733,1.092h0Zm3.442,3.51q0,4.206-1.709,4.205t-1.715-4.205q0-4.242,1.715-4.242t1.709,4.242h0Zm6.434,4.211a0.128,0.128,0,0,0-.11-0.146,1.43,1.43,0,0,1-1.1-.391,1.065,1.065,0,0,1-.122-0.409q-0.03-.262-0.031-1.263v-3.815q0-.677.049-2.7a0.151,0.151,0,0,0-.189-0.146,17.342,17.342,0,0,1-2.038.922,0.166,0.166,0,0,0-.129.116,0.276,0.276,0,0,0,.019.085,0.118,0.118,0,0,0,.1.11,0.59,0.59,0,0,0,.11-0.018l0.5-.153a1.45,1.45,0,0,1,.4-0.073,0.463,0.463,0,0,1,.4.213,2.788,2.788,0,0,1,.11,1.05V555.5a4.568,4.568,0,0,1-.165,1.672,0.645,0.645,0,0,1-.366.281,2.858,2.858,0,0,1-.671.11,0.126,0.126,0,0,0-.122.146,0.117,0.117,0,0,0,.122.141q1.47-.037,1.568-0.037l1.551,0.037a0.113,0.113,0,0,0,.11-0.141h0ZM609.775,574.986a6.69,6.69,0,0,0-.793,3.547,7.226,7.226,0,0,0,.58,3.155,2.106,2.106,0,0,0,1.947,1.373,2,2,0,0,0,1.739-1.1,6.673,6.673,0,0,0,.781-3.5,7.059,7.059,0,0,0-.616-3.149,2.136,2.136,0,0,0-1.9-1.416,2,2,0,0,0-1.734,1.092h0Zm3.443,3.51q0,4.206-1.709,4.205t-1.715-4.205q0-4.242,1.715-4.242t1.709,4.242h0Zm6.433,4.211a0.128,0.128,0,0,0-.11-0.146,1.43,1.43,0,0,1-1.1-.391,1.065,1.065,0,0,1-.122-0.409q-0.03-.262-0.03-1.263v-3.815q0-.677.049-2.7a0.152,0.152,0,0,0-.19-0.146,17.342,17.342,0,0,1-2.038.922,0.164,0.164,0,0,0-.128.116,0.3,0.3,0,0,0,.018.085,0.118,0.118,0,0,0,.1.11,0.584,0.584,0,0,0,.109-0.018l0.495-.153a1.456,1.456,0,0,1,.4-0.073,0.464,0.464,0,0,1,.4.213,2.819,2.819,0,0,1,.109,1.05V580.5a4.6,4.6,0,0,1-.164,1.672,0.651,0.651,0,0,1-.367.281,2.858,2.858,0,0,1-.671.11,0.127,0.127,0,0,0-.122.146,0.117,0.117,0,0,0,.122.141c0.981-.025,1.5-0.037,1.569-0.037l1.55,0.037a0.113,0.113,0,0,0,.11-0.141h0Zm2.624-7.721a6.69,6.69,0,0,0-.793,3.547,7.226,7.226,0,0,0,.58,3.155,2.106,2.106,0,0,0,1.947,1.373,2,2,0,0,0,1.739-1.1,6.673,6.673,0,0,0,.781-3.5,7.059,7.059,0,0,0-.616-3.149,2.136,2.136,0,0,0-1.9-1.416,2,2,0,0,0-1.734,1.092h0Zm3.443,3.51q0,4.206-1.709,4.205t-1.715-4.205q0-4.242,1.715-4.242t1.709,4.242h0Zm6.433,4.211a0.128,0.128,0,0,0-.11-0.146,1.43,1.43,0,0,1-1.1-.391,1.065,1.065,0,0,1-.122-0.409q-0.03-.262-0.03-1.263v-3.815q0-.677.049-2.7a0.152,0.152,0,0,0-.19-0.146,17.342,17.342,0,0,1-2.038.922,0.164,0.164,0,0,0-.128.116,0.3,0.3,0,0,0,.018.085,0.118,0.118,0,0,0,.1.11,0.584,0.584,0,0,0,.109-0.018l0.495-.153a1.456,1.456,0,0,1,.4-0.073,0.464,0.464,0,0,1,.4.213,2.819,2.819,0,0,1,.109,1.05V580.5a4.6,4.6,0,0,1-.164,1.672,0.651,0.651,0,0,1-.367.281,2.858,2.858,0,0,1-.671.11,0.127,0.127,0,0,0-.122.146,0.117,0.117,0,0,0,.122.141c0.981-.025,1.5-0.037,1.569-0.037l1.55,0.037a0.113,0.113,0,0,0,.11-0.141h0Zm6.25,0a0.128,0.128,0,0,0-.11-0.146,1.43,1.43,0,0,1-1.1-.391,1.065,1.065,0,0,1-.122-0.409q-0.03-.262-0.03-1.263v-3.815q0-.677.049-2.7a0.152,0.152,0,0,0-.19-0.146,17.342,17.342,0,0,1-2.038.922,0.164,0.164,0,0,0-.128.116,0.3,0.3,0,0,0,.018.085,0.118,0.118,0,0,0,.1.11,0.584,0.584,0,0,0,.109-0.018l0.495-.153a1.456,1.456,0,0,1,.4-0.073,0.464,0.464,0,0,1,.4.213,2.819,2.819,0,0,1,.109,1.05V580.5a4.6,4.6,0,0,1-.164,1.672,0.651,0.651,0,0,1-.367.281,2.858,2.858,0,0,1-.671.11,0.127,0.127,0,0,0-.122.146,0.117,0.117,0,0,0,.122.141c0.981-.025,1.5-0.037,1.569-0.037l1.55,0.037a0.113,0.113,0,0,0,.11-0.141h0Zm2.624-7.721a6.69,6.69,0,0,0-.793,3.547,7.226,7.226,0,0,0,.58,3.155,2.106,2.106,0,0,0,1.947,1.373,2,2,0,0,0,1.739-1.1,6.673,6.673,0,0,0,.781-3.5,7.059,7.059,0,0,0-.616-3.149,2.136,2.136,0,0,0-1.9-1.416,2,2,0,0,0-1.734,1.092h0Zm3.443,3.51q0,4.206-1.709,4.205t-1.715-4.205q0-4.242,1.715-4.242t1.709,4.242h0Zm6.433,4.211a0.128,0.128,0,0,0-.11-0.146,1.43,1.43,0,0,1-1.1-.391,1.065,1.065,0,0,1-.122-0.409q-0.03-.262-0.03-1.263v-3.815q0-.677.049-2.7a0.152,0.152,0,0,0-.19-0.146,17.342,17.342,0,0,1-2.038.922,0.164,0.164,0,0,0-.128.116,0.3,0.3,0,0,0,.018.085,0.118,0.118,0,0,0,.1.11,0.584,0.584,0,0,0,.109-0.018l0.495-.153a1.456,1.456,0,0,1,.4-0.073,0.464,0.464,0,0,1,.4.213,2.819,2.819,0,0,1,.109,1.05V580.5a4.6,4.6,0,0,1-.164,1.672,0.651,0.651,0,0,1-.367.281,2.858,2.858,0,0,1-.671.11,0.127,0.127,0,0,0-.122.146,0.117,0.117,0,0,0,.122.141c0.981-.025,1.5-0.037,1.569-0.037l1.55,0.037a0.113,0.113,0,0,0,.11-0.141h0Zm2.624-7.721a6.69,6.69,0,0,0-.793,3.547,7.226,7.226,0,0,0,.58,3.155,2.106,2.106,0,0,0,1.947,1.373,2,2,0,0,0,1.739-1.1,6.673,6.673,0,0,0,.781-3.5,7.059,7.059,0,0,0-.616-3.149,2.136,2.136,0,0,0-1.9-1.416,2,2,0,0,0-1.734,1.092h0Zm3.443,3.51q0,4.206-1.709,4.205t-1.715-4.205q0-4.242,1.715-4.242t1.709,4.242h0Zm6.97-3.51a6.689,6.689,0,0,0-.794,3.547,7.24,7.24,0,0,0,.58,3.155,2.108,2.108,0,0,0,1.947,1.373,2,2,0,0,0,1.74-1.1,6.673,6.673,0,0,0,.781-3.5,7.059,7.059,0,0,0-.616-3.149,2.137,2.137,0,0,0-1.9-1.416,2,2,0,0,0-1.733,1.092h0Zm3.442,3.51q0,4.206-1.709,4.205t-1.715-4.205q0-4.242,1.715-4.242t1.709,4.242h0Zm6.433,4.211a0.127,0.127,0,0,0-.109-0.146,1.43,1.43,0,0,1-1.1-.391,1.065,1.065,0,0,1-.122-0.409q-0.031-.262-0.031-1.263v-3.815q0-.677.049-2.7a0.151,0.151,0,0,0-.189-0.146,17.283,17.283,0,0,1-2.039.922,0.166,0.166,0,0,0-.128.116,0.3,0.3,0,0,0,.018.085,0.119,0.119,0,0,0,.1.11,0.59,0.59,0,0,0,.11-0.018l0.494-.153a1.456,1.456,0,0,1,.4-0.073,0.464,0.464,0,0,1,.4.213,2.81,2.81,0,0,1,.11,1.05V580.5a4.568,4.568,0,0,1-.165,1.672,0.645,0.645,0,0,1-.366.281,2.858,2.858,0,0,1-.671.11,0.126,0.126,0,0,0-.122.146,0.117,0.117,0,0,0,.122.141q1.47-.037,1.568-0.037l1.551,0.037a0.113,0.113,0,0,0,.109-0.141h0Zm2.625-7.721a6.689,6.689,0,0,0-.794,3.547,7.24,7.24,0,0,0,.58,3.155,2.108,2.108,0,0,0,1.947,1.373,2,2,0,0,0,1.74-1.1,6.673,6.673,0,0,0,.781-3.5,7.059,7.059,0,0,0-.616-3.149,2.137,2.137,0,0,0-1.9-1.416,2,2,0,0,0-1.733,1.092h0Zm3.442,3.51q0,4.206-1.709,4.205t-1.715-4.205q0-4.242,1.715-4.242t1.709,4.242h0Zm6.433,4.211a0.127,0.127,0,0,0-.109-0.146,1.43,1.43,0,0,1-1.1-.391,1.065,1.065,0,0,1-.122-0.409q-0.031-.262-0.031-1.263v-3.815q0-.677.049-2.7a0.151,0.151,0,0,0-.189-0.146,17.283,17.283,0,0,1-2.039.922,0.166,0.166,0,0,0-.128.116,0.3,0.3,0,0,0,.018.085,0.119,0.119,0,0,0,.1.11,0.59,0.59,0,0,0,.11-0.018l0.494-.153a1.456,1.456,0,0,1,.4-0.073,0.464,0.464,0,0,1,.4.213,2.81,2.81,0,0,1,.11,1.05V580.5a4.568,4.568,0,0,1-.165,1.672,0.645,0.645,0,0,1-.366.281,2.858,2.858,0,0,1-.671.11,0.126,0.126,0,0,0-.122.146,0.117,0.117,0,0,0,.122.141q1.47-.037,1.568-0.037l1.551,0.037a0.113,0.113,0,0,0,.109-0.141h0Zm2.625-7.721a6.689,6.689,0,0,0-.794,3.547,7.24,7.24,0,0,0,.58,3.155,2.108,2.108,0,0,0,1.947,1.373,2,2,0,0,0,1.74-1.1,6.673,6.673,0,0,0,.781-3.5,7.059,7.059,0,0,0-.616-3.149,2.137,2.137,0,0,0-1.9-1.416,2,2,0,0,0-1.733,1.092h0Zm3.442,3.51q0,4.206-1.709,4.205t-1.715-4.205q0-4.242,1.715-4.242t1.709,4.242h0Zm6.433,4.211a0.127,0.127,0,0,0-.109-0.146,1.43,1.43,0,0,1-1.1-.391,1.065,1.065,0,0,1-.122-0.409q-0.031-.262-0.031-1.263v-3.815q0-.677.049-2.7a0.151,0.151,0,0,0-.189-0.146,17.283,17.283,0,0,1-2.039.922,0.166,0.166,0,0,0-.128.116,0.3,0.3,0,0,0,.018.085,0.119,0.119,0,0,0,.1.11,0.59,0.59,0,0,0,.11-0.018l0.494-.153a1.456,1.456,0,0,1,.4-0.073,0.464,0.464,0,0,1,.4.213,2.81,2.81,0,0,1,.11,1.05V580.5a4.568,4.568,0,0,1-.165,1.672,0.645,0.645,0,0,1-.366.281,2.858,2.858,0,0,1-.671.11,0.126,0.126,0,0,0-.122.146,0.117,0.117,0,0,0,.122.141q1.47-.037,1.568-0.037l1.551,0.037a0.113,0.113,0,0,0,.109-0.141h0Zm2.625-7.721a6.689,6.689,0,0,0-.794,3.547,7.24,7.24,0,0,0,.58,3.155,2.108,2.108,0,0,0,1.947,1.373,2,2,0,0,0,1.74-1.1,6.673,6.673,0,0,0,.781-3.5,7.059,7.059,0,0,0-.616-3.149,2.137,2.137,0,0,0-1.9-1.416,2,2,0,0,0-1.733,1.092h0Zm3.442,3.51q0,4.206-1.709,4.205t-1.715-4.205q0-4.242,1.715-4.242t1.709,4.242h0Zm6.433,4.211a0.127,0.127,0,0,0-.109-0.146,1.43,1.43,0,0,1-1.1-.391,1.065,1.065,0,0,1-.122-0.409q-0.031-.262-0.031-1.263v-3.815q0-.677.049-2.7a0.151,0.151,0,0,0-.189-0.146,17.283,17.283,0,0,1-2.039.922,0.166,0.166,0,0,0-.128.116,0.3,0.3,0,0,0,.018.085,0.119,0.119,0,0,0,.1.11,0.59,0.59,0,0,0,.11-0.018l0.494-.153a1.456,1.456,0,0,1,.4-0.073,0.464,0.464,0,0,1,.4.213,2.81,2.81,0,0,1,.11,1.05V580.5a4.568,4.568,0,0,1-.165,1.672,0.645,0.645,0,0,1-.366.281,2.858,2.858,0,0,1-.671.11,0.126,0.126,0,0,0-.122.146,0.117,0.117,0,0,0,.122.141q1.47-.037,1.568-0.037l1.551,0.037a0.113,0.113,0,0,0,.109-0.141h0Zm6.787-7.721a6.69,6.69,0,0,0-.793,3.547,7.226,7.226,0,0,0,.58,3.155,2.106,2.106,0,0,0,1.947,1.373,2,2,0,0,0,1.739-1.1,6.673,6.673,0,0,0,.782-3.5,7.058,7.058,0,0,0-.617-3.149,2.136,2.136,0,0,0-1.9-1.416,2,2,0,0,0-1.734,1.092h0Zm3.443,3.51q0,4.206-1.709,4.205t-1.715-4.205q0-4.242,1.715-4.242t1.709,4.242h0Zm6.433,4.211a0.128,0.128,0,0,0-.11-0.146,1.43,1.43,0,0,1-1.1-.391,1.082,1.082,0,0,1-.122-0.409q-0.03-.262-0.03-1.263v-3.815q0-.677.049-2.7a0.151,0.151,0,0,0-.189-0.146,17.357,17.357,0,0,1-2.039.922,0.164,0.164,0,0,0-.128.116,0.3,0.3,0,0,0,.018.085,0.118,0.118,0,0,0,.1.11,0.6,0.6,0,0,0,.11-0.018l0.494-.153a1.456,1.456,0,0,1,.4-0.073,0.464,0.464,0,0,1,.4.213,2.81,2.81,0,0,1,.11,1.05V580.5a4.568,4.568,0,0,1-.165,1.672,0.652,0.652,0,0,1-.366.281,2.879,2.879,0,0,1-.672.11,0.127,0.127,0,0,0-.122.146,0.117,0.117,0,0,0,.122.141q1.471-.037,1.569-0.037l1.55,0.037a0.113,0.113,0,0,0,.11-0.141h0Zm2.624-7.721a6.69,6.69,0,0,0-.793,3.547,7.226,7.226,0,0,0,.58,3.155,2.106,2.106,0,0,0,1.947,1.373,2,2,0,0,0,1.739-1.1,6.673,6.673,0,0,0,.782-3.5,7.058,7.058,0,0,0-.617-3.149,2.136,2.136,0,0,0-1.9-1.416,2,2,0,0,0-1.734,1.092h0Zm3.443,3.51q0,4.206-1.709,4.205t-1.715-4.205q0-4.242,1.715-4.242t1.709,4.242h0Zm2.807-3.51a6.69,6.69,0,0,0-.793,3.547,7.226,7.226,0,0,0,.58,3.155,2.106,2.106,0,0,0,1.947,1.373,2,2,0,0,0,1.739-1.1,6.673,6.673,0,0,0,.782-3.5,7.058,7.058,0,0,0-.617-3.149,2.136,2.136,0,0,0-1.9-1.416,2,2,0,0,0-1.734,1.092h0Zm3.443,3.51q0,4.206-1.709,4.205t-1.715-4.205q0-4.242,1.715-4.242t1.709,4.242h0Zm6.433,4.211a0.128,0.128,0,0,0-.11-0.146,1.43,1.43,0,0,1-1.1-.391,1.082,1.082,0,0,1-.122-0.409q-0.03-.262-0.03-1.263v-3.815q0-.677.049-2.7a0.151,0.151,0,0,0-.189-0.146,17.357,17.357,0,0,1-2.039.922,0.164,0.164,0,0,0-.128.116,0.3,0.3,0,0,0,.018.085,0.118,0.118,0,0,0,.1.11,0.6,0.6,0,0,0,.11-0.018l0.494-.153a1.456,1.456,0,0,1,.4-0.073,0.464,0.464,0,0,1,.4.213,2.81,2.81,0,0,1,.11,1.05V580.5a4.568,4.568,0,0,1-.165,1.672,0.652,0.652,0,0,1-.366.281,2.879,2.879,0,0,1-.672.11,0.127,0.127,0,0,0-.122.146,0.117,0.117,0,0,0,.122.141q1.471-.037,1.569-0.037l1.55,0.037a0.113,0.113,0,0,0,.11-0.141h0Zm2.624-7.721a6.69,6.69,0,0,0-.793,3.547,7.226,7.226,0,0,0,.58,3.155,2.106,2.106,0,0,0,1.947,1.373,2,2,0,0,0,1.739-1.1,6.673,6.673,0,0,0,.782-3.5,7.058,7.058,0,0,0-.617-3.149,2.136,2.136,0,0,0-1.9-1.416,2,2,0,0,0-1.734,1.092h0Zm3.443,3.51q0,4.206-1.709,4.205t-1.715-4.205q0-4.242,1.715-4.242t1.709,4.242h0Zm6.433,4.211a0.128,0.128,0,0,0-.11-0.146,1.43,1.43,0,0,1-1.1-.391,1.082,1.082,0,0,1-.122-0.409q-0.03-.262-0.03-1.263v-3.815q0-.677.049-2.7a0.151,0.151,0,0,0-.189-0.146,17.357,17.357,0,0,1-2.039.922,0.164,0.164,0,0,0-.128.116,0.3,0.3,0,0,0,.018.085,0.118,0.118,0,0,0,.1.11,0.6,0.6,0,0,0,.11-0.018l0.494-.153a1.456,1.456,0,0,1,.4-0.073,0.464,0.464,0,0,1,.4.213,2.81,2.81,0,0,1,.11,1.05V580.5a4.568,4.568,0,0,1-.165,1.672,0.652,0.652,0,0,1-.366.281,2.879,2.879,0,0,1-.672.11,0.127,0.127,0,0,0-.122.146,0.117,0.117,0,0,0,.122.141q1.471-.037,1.569-0.037l1.55,0.037a0.113,0.113,0,0,0,.11-0.141h0Zm6.25,0a0.128,0.128,0,0,0-.11-0.146,1.43,1.43,0,0,1-1.1-.391,1.082,1.082,0,0,1-.122-0.409q-0.03-.262-0.03-1.263v-3.815q0-.677.049-2.7a0.151,0.151,0,0,0-.189-0.146,17.357,17.357,0,0,1-2.039.922,0.164,0.164,0,0,0-.128.116,0.3,0.3,0,0,0,.018.085,0.118,0.118,0,0,0,.1.11,0.6,0.6,0,0,0,.11-0.018l0.494-.153a1.456,1.456,0,0,1,.4-0.073,0.464,0.464,0,0,1,.4.213,2.81,2.81,0,0,1,.11,1.05V580.5a4.568,4.568,0,0,1-.165,1.672,0.652,0.652,0,0,1-.366.281,2.879,2.879,0,0,1-.672.11,0.127,0.127,0,0,0-.122.146,0.117,0.117,0,0,0,.122.141q1.471-.037,1.569-0.037l1.55,0.037a0.113,0.113,0,0,0,.11-0.141h0Zm6.787-7.721a6.69,6.69,0,0,0-.793,3.547,7.241,7.241,0,0,0,.579,3.155A2.108,2.108,0,0,0,774,583.061a2,2,0,0,0,1.74-1.1,6.673,6.673,0,0,0,.781-3.5,7.059,7.059,0,0,0-.616-3.149,2.136,2.136,0,0,0-1.9-1.416,2,2,0,0,0-1.733,1.092h0Zm3.442,3.51q0,4.206-1.709,4.205t-1.715-4.205q0-4.242,1.715-4.242t1.709,4.242h0Zm6.434,4.211a0.128,0.128,0,0,0-.11-0.146,1.43,1.43,0,0,1-1.1-.391,1.065,1.065,0,0,1-.122-0.409q-0.03-.262-0.031-1.263v-3.815q0-.677.049-2.7a0.151,0.151,0,0,0-.189-0.146,17.342,17.342,0,0,1-2.038.922,0.166,0.166,0,0,0-.129.116,0.276,0.276,0,0,0,.019.085,0.118,0.118,0,0,0,.1.11,0.59,0.59,0,0,0,.11-0.018l0.5-.153a1.45,1.45,0,0,1,.4-0.073,0.462,0.462,0,0,1,.4.213,2.788,2.788,0,0,1,.11,1.05V580.5a4.568,4.568,0,0,1-.165,1.672,0.645,0.645,0,0,1-.366.281,2.858,2.858,0,0,1-.671.11,0.126,0.126,0,0,0-.122.146,0.117,0.117,0,0,0,.122.141q1.47-.037,1.568-0.037l1.551,0.037a0.113,0.113,0,0,0,.11-0.141h0Zm2.624-7.721a6.69,6.69,0,0,0-.793,3.547,7.241,7.241,0,0,0,.579,3.155,2.108,2.108,0,0,0,1.947,1.373,2,2,0,0,0,1.74-1.1,6.673,6.673,0,0,0,.781-3.5,7.059,7.059,0,0,0-.616-3.149,2.136,2.136,0,0,0-1.9-1.416,2,2,0,0,0-1.733,1.092h0Zm3.442,3.51q0,4.206-1.709,4.205t-1.715-4.205q0-4.242,1.715-4.242t1.709,4.242h0Zm2.808-3.51a6.69,6.69,0,0,0-.793,3.547,7.241,7.241,0,0,0,.579,3.155,2.108,2.108,0,0,0,1.947,1.373,2,2,0,0,0,1.74-1.1,6.673,6.673,0,0,0,.781-3.5,7.059,7.059,0,0,0-.616-3.149,2.136,2.136,0,0,0-1.9-1.416,2,2,0,0,0-1.733,1.092h0Zm3.442,3.51q0,4.206-1.709,4.205t-1.715-4.205q0-4.242,1.715-4.242t1.709,4.242h0Zm6.434,4.211a0.128,0.128,0,0,0-.11-0.146,1.43,1.43,0,0,1-1.1-.391,1.065,1.065,0,0,1-.122-0.409q-0.03-.262-0.031-1.263v-3.815q0-.677.049-2.7a0.151,0.151,0,0,0-.189-0.146,17.342,17.342,0,0,1-2.038.922,0.166,0.166,0,0,0-.129.116,0.276,0.276,0,0,0,.019.085,0.118,0.118,0,0,0,.1.11,0.59,0.59,0,0,0,.11-0.018l0.5-.153a1.45,1.45,0,0,1,.4-0.073,0.462,0.462,0,0,1,.4.213,2.788,2.788,0,0,1,.11,1.05V580.5a4.568,4.568,0,0,1-.165,1.672,0.645,0.645,0,0,1-.366.281,2.858,2.858,0,0,1-.671.11,0.126,0.126,0,0,0-.122.146,0.117,0.117,0,0,0,.122.141q1.47-.037,1.568-0.037l1.551,0.037a0.113,0.113,0,0,0,.11-0.141h0Zm2.624-7.721a6.69,6.69,0,0,0-.793,3.547,7.241,7.241,0,0,0,.579,3.155,2.108,2.108,0,0,0,1.947,1.373,2,2,0,0,0,1.74-1.1,6.673,6.673,0,0,0,.781-3.5,7.059,7.059,0,0,0-.616-3.149,2.136,2.136,0,0,0-1.9-1.416,2,2,0,0,0-1.733,1.092h0Zm3.442,3.51q0,4.206-1.709,4.205t-1.715-4.205q0-4.242,1.715-4.242t1.709,4.242h0Zm2.808-3.51a6.69,6.69,0,0,0-.793,3.547,7.241,7.241,0,0,0,.579,3.155,2.108,2.108,0,0,0,1.947,1.373,2,2,0,0,0,1.74-1.1,6.673,6.673,0,0,0,.781-3.5,7.059,7.059,0,0,0-.616-3.149,2.136,2.136,0,0,0-1.9-1.416,2,2,0,0,0-1.733,1.092h0Zm3.442,3.51q0,4.206-1.709,4.205t-1.715-4.205q0-4.242,1.715-4.242t1.709,4.242h0Zm6.434,4.211a0.128,0.128,0,0,0-.11-0.146,1.43,1.43,0,0,1-1.1-.391,1.065,1.065,0,0,1-.122-0.409q-0.03-.262-0.031-1.263v-3.815q0-.677.049-2.7a0.151,0.151,0,0,0-.189-0.146,17.342,17.342,0,0,1-2.038.922,0.166,0.166,0,0,0-.129.116,0.276,0.276,0,0,0,.019.085,0.118,0.118,0,0,0,.1.11,0.59,0.59,0,0,0,.11-0.018l0.5-.153a1.45,1.45,0,0,1,.4-0.073,0.462,0.462,0,0,1,.4.213,2.788,2.788,0,0,1,.11,1.05V580.5a4.568,4.568,0,0,1-.165,1.672,0.645,0.645,0,0,1-.366.281,2.858,2.858,0,0,1-.671.11,0.126,0.126,0,0,0-.122.146,0.117,0.117,0,0,0,.122.141q1.47-.037,1.568-0.037l1.551,0.037a0.113,0.113,0,0,0,.11-0.141h0Zm6.787-7.721a6.689,6.689,0,0,0-.794,3.547,7.226,7.226,0,0,0,.58,3.155,2.108,2.108,0,0,0,1.947,1.373,2,2,0,0,0,1.74-1.1,6.683,6.683,0,0,0,.781-3.5,7.058,7.058,0,0,0-.617-3.149,2.135,2.135,0,0,0-1.9-1.416,2,2,0,0,0-1.733,1.092h0Zm3.442,3.51q0,4.206-1.709,4.205t-1.715-4.205q0-4.242,1.715-4.242t1.709,4.242h0Zm2.808-3.51a6.689,6.689,0,0,0-.794,3.547,7.226,7.226,0,0,0,.58,3.155,2.108,2.108,0,0,0,1.947,1.373,2,2,0,0,0,1.74-1.1,6.683,6.683,0,0,0,.781-3.5,7.058,7.058,0,0,0-.617-3.149,2.135,2.135,0,0,0-1.9-1.416,2,2,0,0,0-1.733,1.092h0Zm3.442,3.51q0,4.206-1.709,4.205t-1.715-4.205q0-4.242,1.715-4.242t1.709,4.242h0Zm2.808-3.51a6.689,6.689,0,0,0-.794,3.547,7.226,7.226,0,0,0,.58,3.155,2.108,2.108,0,0,0,1.947,1.373,2,2,0,0,0,1.74-1.1,6.683,6.683,0,0,0,.781-3.5,7.058,7.058,0,0,0-.617-3.149,2.135,2.135,0,0,0-1.9-1.416,2,2,0,0,0-1.733,1.092h0Zm3.442,3.51q0,4.206-1.709,4.205t-1.715-4.205q0-4.242,1.715-4.242t1.709,4.242h0Zm2.808-3.51a6.689,6.689,0,0,0-.794,3.547,7.226,7.226,0,0,0,.58,3.155,2.108,2.108,0,0,0,1.947,1.373,2,2,0,0,0,1.74-1.1,6.683,6.683,0,0,0,.781-3.5,7.058,7.058,0,0,0-.617-3.149,2.135,2.135,0,0,0-1.9-1.416,2,2,0,0,0-1.733,1.092h0Zm3.442,3.51q0,4.206-1.709,4.205t-1.715-4.205q0-4.242,1.715-4.242t1.709,4.242h0Zm6.433,4.211a0.127,0.127,0,0,0-.11-0.146,1.427,1.427,0,0,1-1.1-.391,1.065,1.065,0,0,1-.122-0.409q-0.031-.262-0.031-1.263v-3.815q0-.677.049-2.7a0.151,0.151,0,0,0-.189-0.146,17.357,17.357,0,0,1-2.039.922,0.166,0.166,0,0,0-.128.116,0.3,0.3,0,0,0,.018.085,0.119,0.119,0,0,0,.1.11,0.6,0.6,0,0,0,.11-0.018l0.494-.153a1.456,1.456,0,0,1,.4-0.073,0.464,0.464,0,0,1,.4.213,2.81,2.81,0,0,1,.11,1.05V580.5a4.568,4.568,0,0,1-.165,1.672,0.645,0.645,0,0,1-.366.281,2.869,2.869,0,0,1-.672.11,0.127,0.127,0,0,0-.122.146,0.117,0.117,0,0,0,.122.141q1.471-.037,1.569-0.037l1.55,0.037a0.113,0.113,0,0,0,.11-0.141h0Zm2.625-7.721a6.689,6.689,0,0,0-.794,3.547,7.226,7.226,0,0,0,.58,3.155,2.108,2.108,0,0,0,1.947,1.373,2,2,0,0,0,1.74-1.1,6.683,6.683,0,0,0,.781-3.5,7.058,7.058,0,0,0-.617-3.149,2.135,2.135,0,0,0-1.9-1.416,2,2,0,0,0-1.733,1.092h0Zm3.442,3.51q0,4.206-1.709,4.205t-1.715-4.205q0-4.242,1.715-4.242t1.709,4.242h0Zm6.433,4.211a0.127,0.127,0,0,0-.11-0.146,1.427,1.427,0,0,1-1.1-.391,1.065,1.065,0,0,1-.122-0.409q-0.031-.262-0.031-1.263v-3.815q0-.677.049-2.7a0.151,0.151,0,0,0-.189-0.146,17.357,17.357,0,0,1-2.039.922,0.166,0.166,0,0,0-.128.116,0.3,0.3,0,0,0,.018.085,0.119,0.119,0,0,0,.1.11,0.6,0.6,0,0,0,.11-0.018l0.494-.153a1.456,1.456,0,0,1,.4-0.073,0.464,0.464,0,0,1,.4.213,2.81,2.81,0,0,1,.11,1.05V580.5a4.568,4.568,0,0,1-.165,1.672,0.645,0.645,0,0,1-.366.281,2.869,2.869,0,0,1-.672.11,0.127,0.127,0,0,0-.122.146,0.117,0.117,0,0,0,.122.141q1.471-.037,1.569-0.037l1.55,0.037a0.113,0.113,0,0,0,.11-0.141h0Zm2.625-7.721a6.689,6.689,0,0,0-.794,3.547,7.226,7.226,0,0,0,.58,3.155,2.108,2.108,0,0,0,1.947,1.373,2,2,0,0,0,1.74-1.1,6.683,6.683,0,0,0,.781-3.5,7.058,7.058,0,0,0-.617-3.149,2.135,2.135,0,0,0-1.9-1.416,2,2,0,0,0-1.733,1.092h0Zm3.442,3.51q0,4.206-1.709,4.205t-1.715-4.205q0-4.242,1.715-4.242t1.709,4.242h0Z" 
  transform="translate(-574.219 -523.844)"/>
</svg>
