<?xml version="1.0" standalone="no"?>
<!DOCTYPE svg PUBLIC "-//W3C//DTD SVG 20010904//EN"
 "http://www.w3.org/TR/2001/REC-SVG-20010904/DTD/svg10.dtd">
<svg version="1.0" xmlns="http://www.w3.org/2000/svg"
 width="626.000000pt" height="626.000000pt" viewBox="0 0 626.000000 626.000000"
 preserveAspectRatio="xMidYMid meet">

<g transform="translate(0.000000,626.000000) scale(0.100000,-0.100000)"
fill="#000000" stroke="none">
<path d="M3540 5691 c0 -5 27 -22 59 -38 33 -15 60 -31 60 -35 1 -6 -126 -268
-132 -275 -2 -1 -53 18 -115 42 -62 25 -118 45 -125 45 -6 -1 38 -20 98 -44
61 -23 121 -48 135 -56 13 -7 26 -9 28 -4 2 5 33 70 71 144 43 86 74 136 85
138 22 5 141 -52 283 -134 l112 -66 -96 -141 c-140 -205 -122 -186 -160 -171
-77 33 -25 -45 54 -80 61 -27 77 -38 164 -106 111 -86 290 -264 379 -375 123
-153 249 -350 250 -392 0 -11 -178 -119 -184 -112 -2 2 -16 27 -31 54 -163
287 -412 554 -705 754 -47 32 -110 72 -141 90 -30 17 -65 41 -76 53 l-21 23
40 73 c29 52 45 72 60 72 39 0 10 25 -68 58 -186 79 -358 142 -484 177 -230
64 -269 77 -265 89 2 6 6 24 10 40 6 27 8 28 53 22 36 -4 40 -3 19 4 -16 5
-43 10 -60 12 -30 3 -32 1 -41 -39 -8 -41 -9 -42 -55 -45 l-46 -4 39 -18 c22
-10 69 -20 105 -22 148 -9 595 -156 703 -230 l36 -26 -39 -71 c-21 -40 -44
-71 -51 -71 -7 1 -25 5 -40 9 -36 9 -38 -11 -3 -40 l24 -20 -113 -205 -113
-205 -37 3 c-42 4 -46 -9 -10 -37 l26 -20 -33 -58 c-18 -32 -33 -60 -35 -61
-1 -2 -24 6 -49 17 -26 12 -50 21 -54 21 -6 -1 100 -59 109 -59 3 -1 21 29 40
65 34 64 36 65 67 59 39 -7 43 8 13 40 l-20 21 105 189 c57 105 109 197 114
207 9 15 15 15 55 3 60 -18 95 -37 212 -115 284 -191 510 -424 683 -705 70
-113 74 -127 36 -125 -3 1 -12 -6 -20 -14 -8 -7 -44 -31 -80 -51 -78 -43 -79
-43 -141 58 -90 149 -319 421 -381 455 -23 12 -24 12 -19 -5 4 -14 -8 -32 -44
-68 -59 -58 -54 -59 -183 39 -48 36 -91 66 -95 66 -4 0 -17 -15 -28 -33 -12
-17 -40 -57 -62 -88 l-41 -56 85 -62 c46 -34 84 -65 84 -69 0 -4 -8 -17 -18
-30 -17 -21 -21 -22 -48 -10 -16 7 -69 42 -119 76 -49 35 -151 94 -226 132
-92 45 -135 71 -130 79 4 6 16 9 27 6 19 -6 19 -6 0 6 -15 9 -23 9 -39 0 -16
-10 -22 -10 -32 1 -11 11 -3 39 45 158 54 132 61 145 87 150 l28 6 -25 16
c-33 21 -77 30 -85 18 -3 -6 1 -13 9 -16 9 -3 16 -12 16 -20 0 -8 -25 -77 -56
-154 -45 -111 -60 -140 -75 -140 -10 0 -19 -5 -19 -11 0 -11 60 -39 85 -39 49
0 347 -166 464 -258 31 -25 24 -42 -44 -116 l-54 -59 -56 42 c-65 50 -199 132
-244 151 -17 7 -31 16 -31 21 0 14 -57 39 -91 39 l-32 0 27 -25 c14 -13 43
-27 64 -31 20 -4 64 -20 97 -37 61 -30 225 -138 244 -160 12 -15 -52 -97 -76
-97 -13 0 -103 58 -103 67 0 14 35 53 47 53 13 0 13 3 3 15 -12 14 -25 12 -25
-3 0 -4 -8 -19 -18 -33 l-18 -27 -85 49 c-47 27 -88 49 -92 49 -4 0 -18 -23
-31 -50 -28 -57 -38 -59 -106 -30 -26 11 -52 20 -58 20 -7 -1 14 -12 45 -25
31 -13 67 -30 80 -39 29 -20 42 -20 34 0 -5 14 38 104 50 104 17 0 154 -81
154 -91 0 -4 -13 -21 -29 -38 -26 -28 -28 -33 -13 -38 9 -3 26 -13 37 -22 15
-12 14 -9 -4 11 l-23 27 22 30 21 31 35 -26 c19 -15 44 -40 55 -55 23 -33 54
-40 46 -10 -3 13 9 32 40 63 l44 43 94 -97 c51 -53 123 -142 160 -198 73 -110
150 -264 142 -284 -6 -16 19 -76 33 -76 6 0 14 10 19 23 6 15 23 27 47 35 44
13 56 4 52 -41 -3 -27 -9 -30 -213 -98 -127 -42 -215 -67 -223 -62 -8 4 -26
40 -41 79 -15 38 -42 97 -60 130 -19 32 -40 71 -48 86 -18 35 -32 43 -39 24
-3 -8 -23 -26 -44 -40 l-38 -25 -40 52 c-23 29 -55 66 -72 82 -18 17 -36 40
-41 53 -6 15 -17 22 -34 22 -14 0 -25 -4 -25 -9 0 -14 29 -41 44 -41 12 0 97
-84 134 -134 16 -21 19 -32 11 -42 -6 -7 -16 -11 -24 -8 -26 10 -27 -18 -1
-43 28 -26 73 -110 113 -208 13 -33 21 -46 18 -30 -3 17 -29 77 -58 135 -57
116 -61 135 -33 135 40 0 154 -261 172 -392 8 -61 -1 -103 -21 -103 -7 0 -16
12 -18 28 -4 25 -4 25 -6 -5 -1 -29 2 -33 23 -33 14 0 28 -5 31 -11 5 -7 13
-5 24 5 23 21 258 51 277 35 18 -14 19 -191 3 -324 -24 -193 -120 -484 -187
-564 l-27 -32 -84 55 c-78 51 -101 60 -101 35 0 -24 -138 -193 -176 -215 -10
-6 -21 -19 -22 -28 -6 -27 28 -16 47 15 9 14 45 61 80 105 35 43 65 84 68 90
10 27 37 22 101 -21 49 -33 67 -51 67 -68 0 -35 37 -29 48 8 5 17 31 77 58
135 63 137 100 250 130 402 14 68 29 460 19 473 -4 6 -13 36 -20 68 -6 31 -13
57 -15 57 -2 0 -45 -9 -95 -21 -50 -12 -94 -19 -97 -16 -3 4 -2 22 1 41 l7 35
147 47 c314 100 287 94 301 72 6 -10 16 -16 21 -13 18 11 10 61 -15 95 -14 19
-25 37 -25 41 0 12 139 61 151 54 13 -8 39 -67 39 -88 0 -19 -79 -42 -93 -28
-6 6 -15 11 -19 11 -9 0 -11 -41 -2 -64 9 -22 34 -20 34 3 0 14 11 21 42 29
24 6 45 8 49 4 7 -9 35 -137 51 -232 19 -114 15 -472 -6 -595 -24 -141 -54
-266 -71 -291 l-14 -22 -63 19 c-35 11 -75 26 -90 34 -15 7 -37 11 -48 8 -25
-7 -25 -14 4 99 14 51 30 122 36 157 15 86 27 281 18 281 -5 0 -8 -30 -8 -66
0 -86 -25 -250 -56 -372 -28 -113 -29 -122 -9 -122 21 0 19 -9 -16 -97 -46
-116 -107 -235 -135 -261 -23 -22 -33 -62 -16 -62 13 0 42 34 42 48 0 7 20 53
45 102 25 50 59 125 76 168 17 42 34 81 39 86 5 5 43 -3 89 -19 l80 -28 -3
-46 c-2 -25 -11 -64 -20 -85 -9 -22 -14 -41 -12 -43 2 -3 13 20 24 50 12 30
30 70 41 88 12 19 21 48 21 64 0 17 11 80 25 140 45 198 58 330 52 545 -4 144
-11 224 -27 305 -35 172 -34 165 -18 165 37 0 68 -135 88 -380 7 -86 7 -127
-1 -136 -14 -17 -7 -96 9 -102 7 -2 16 5 19 17 5 20 12 21 109 21 l104 0 0
-67 c-1 -44 -6 -75 -15 -87 -10 -13 -15 -43 -15 -87 0 -37 -7 -103 -15 -146
-23 -117 -28 -108 83 -134 53 -12 101 -26 106 -30 19 -17 -143 -499 -177 -528
-16 -13 -97 33 -97 56 0 13 -3 13 -15 3 -19 -16 -19 -7 1 31 8 17 14 33 12 35
-2 2 -14 -17 -26 -42 -12 -25 -18 -43 -12 -39 7 4 9 -2 4 -19 -6 -26 8 -37 21
-16 6 9 59 -15 88 -40 21 -18 -179 -351 -248 -411 -19 -17 -35 -40 -35 -50 0
-21 11 -24 26 -9 7 7 19 4 37 -10 l27 -22 -67 -76 c-36 -42 -78 -83 -92 -90
-23 -12 -28 -10 -83 45 -32 31 -58 65 -58 75 0 10 -3 18 -7 18 -4 0 -40 -32
-79 -71 l-71 -71 -76 88 c-61 70 -74 91 -66 105 20 37 -12 29 -58 -16 -27 -25
-91 -75 -143 -110 -114 -76 -340 -188 -372 -183 -18 2 -28 18 -50 73 -15 39
-27 73 -28 76 0 4 26 17 58 29 198 79 409 227 589 414 66 69 125 126 131 126
6 0 14 -4 17 -10 3 -5 10 -10 14 -10 21 0 230 350 231 385 0 6 -27 -40 -59
-102 -65 -122 -156 -263 -171 -263 -15 0 -23 21 -11 33 13 13 15 47 3 47 -4 0
-16 -6 -27 -14 -18 -12 -29 -7 -120 65 -78 61 -99 83 -97 100 2 11 24 54 48
94 146 241 233 517 251 800 3 55 10 111 15 124 8 21 13 23 54 18 31 -3 44 -1
41 7 -2 6 -22 11 -45 11 -29 0 -45 6 -56 20 -14 17 -17 18 -26 5 -13 -20 -13
-67 1 -76 12 -7 7 -117 -12 -254 -13 -94 -51 -247 -85 -342 -53 -147 -174
-368 -210 -382 -8 -3 -23 -26 -34 -50 -12 -30 -54 -80 -122 -147 -57 -57 -108
-112 -113 -123 -6 -12 -28 -30 -50 -41 -39 -21 -57 -45 -33 -45 7 0 25 -19 40
-43 l28 -42 -28 -23 c-46 -38 -243 -132 -277 -132 -30 0 -55 -15 -55 -32 0 -4
8 -8 18 -8 13 0 23 -16 37 -57 11 -32 20 -62 20 -67 0 -20 -242 -79 -289 -71
-33 7 -33 7 -48 91 -9 52 -11 87 -5 91 21 13 -23 21 -59 11 -21 -6 -115 -11
-209 -11 -137 -1 -180 3 -223 17 -31 11 -64 15 -79 11 -24 -6 -25 -8 -10 -22
13 -13 56 -16 274 -19 142 -1 261 -3 264 -3 7 -1 29 -113 29 -147 0 -11 -10
-24 -21 -29 -57 -26 25 -47 83 -22 18 8 69 22 113 32 44 10 105 26 135 37 30
10 56 15 58 11 1 -4 16 -39 31 -78 25 -59 27 -72 15 -81 -8 -6 -14 -16 -14
-23 0 -18 35 -13 71 12 19 12 64 35 101 51 89 37 225 115 323 186 116 83 112
83 181 -2 33 -39 65 -80 72 -89 11 -16 3 -25 -65 -76 -107 -81 -183 -129 -215
-137 -31 -7 -86 -51 -77 -61 11 -11 57 6 84 31 15 13 61 48 103 76 42 28 103
71 134 95 l58 44 25 -28 c27 -31 30 -39 15 -48 -15 -9 -12 -25 4 -25 20 0 66
39 66 56 0 10 -7 13 -23 9 -17 -5 -28 1 -45 24 l-22 31 41 37 c76 70 78 70
145 2 51 -51 57 -62 46 -77 -31 -44 -27 -62 10 -45 20 9 29 6 66 -30 l42 -41
-41 -42 c-46 -47 -45 -56 9 -107 l30 -29 32 24 c40 28 320 335 320 349 0 6 20
38 44 72 76 107 156 246 237 412 44 87 79 164 79 170 1 20 38 55 53 49 11 -4
14 -15 10 -40 -5 -27 -2 -34 11 -34 9 0 22 11 28 25 6 14 14 24 18 23 3 -2 54
-23 113 -47 96 -39 107 -46 107 -68 0 -21 2 -23 15 -13 8 7 20 31 26 54 6 22
25 83 41 134 17 51 28 95 26 97 -2 3 -16 -33 -31 -78 -15 -45 -37 -95 -49
-110 l-23 -28 -108 42 -109 42 4 46 c3 25 21 100 42 166 84 271 128 578 128
900 1 280 -25 497 -88 748 -13 54 -22 102 -19 107 9 14 -24 106 -45 125 -20
18 -20 18 -20 -16 l0 -34 -121 -44 -122 -44 -18 24 c-25 33 -70 152 -61 160 8
8 303 145 331 154 12 4 21 -2 29 -20 14 -30 42 -33 42 -4 0 30 -48 126 -67
133 -13 5 -15 0 -11 -31 l5 -38 -170 -80 c-94 -44 -173 -81 -177 -83 -9 -4
-71 138 -65 148 3 5 44 29 91 55 l85 47 21 -27 c17 -22 23 -24 29 -12 12 20
-14 80 -51 120 -16 18 -62 82 -101 142 -145 222 -349 447 -537 591 -48 37
-104 85 -125 107 -37 39 -37 40 -21 66 14 22 110 152 137 186 4 6 22 31 41 57
l32 48 72 -50 c220 -151 457 -380 633 -611 121 -159 272 -417 339 -579 17 -41
35 -84 40 -95 4 -11 11 -37 13 -57 7 -47 42 -128 56 -128 6 0 11 15 11 33 0
34 1 34 231 122 49 18 154 -371 205 -758 21 -163 29 -563 15 -732 -29 -337
-105 -725 -163 -837 -17 -32 -24 -37 -42 -32 -99 30 -145 48 -141 55 9 13 -12
20 -22 6 -5 -6 -17 -41 -27 -77 -45 -166 -233 -579 -302 -661 -54 -65 -81
-129 -55 -129 16 0 43 47 144 248 81 159 197 424 197 447 0 19 55 115 64 112
6 -2 41 -14 79 -26 l67 -23 -6 -50 c-13 -100 44 -29 66 82 6 30 20 96 31 145
49 210 60 266 79 373 35 198 52 415 52 652 -1 360 -40 664 -131 1000 -21 80
-46 176 -55 214 -9 38 -30 90 -46 116 -17 26 -30 49 -30 53 0 3 -16 40 -35 82
l-34 76 -100 -50 -100 -50 -64 122 c-190 362 -482 709 -803 957 -60 47 -120
98 -133 113 -13 16 -47 41 -75 57 -79 46 -116 37 -56 -13 29 -25 29 -26 12
-47 l-18 -22 -80 50 c-44 28 -121 70 -171 95 -50 25 -110 59 -134 75 -75 49
-179 80 -179 53z m679 -273 c81 -28 339 -242 494 -409 189 -206 380 -481 485
-701 20 -43 43 -78 49 -78 7 0 51 20 98 45 47 25 89 44 94 41 14 -9 68 -149
78 -203 l9 -52 -120 -49 -120 -49 -18 31 c-10 17 -27 51 -39 76 -161 338 -230
458 -382 660 -136 181 -377 422 -559 559 -76 56 -138 106 -138 110 0 8 21 31
29 31 2 0 21 -5 40 -12z m-618 -1010 c37 -28 83 -70 103 -94 44 -53 82 -63 57
-15 -8 14 1 28 44 71 l55 54 98 -100 c128 -130 276 -336 288 -400 6 -33 28
-77 46 -92 8 -6 25 -34 38 -62 13 -27 30 -50 37 -50 7 0 40 13 71 29 l58 29
26 -41 c54 -88 135 -385 163 -606 18 -137 25 -339 12 -358 -6 -9 -41 -13 -116
-13 l-109 0 -6 113 c-25 415 -122 756 -296 1044 -21 34 -43 77 -50 97 -14 44
-59 91 -74 76 -13 -13 19 -77 50 -97 26 -17 100 -140 153 -254 124 -270 201
-606 201 -875 l0 -104 -104 0 -104 0 -6 28 c-3 15 -8 70 -11 122 -10 152 -56
425 -75 444 -5 5 -16 2 -26 -8 -23 -24 -34 -10 -44 62 -4 33 -13 69 -19 81
-17 31 -41 27 -41 -6 0 -25 -8 -31 -67 -55 -37 -15 -68 -26 -69 -25 -1 1 -18
40 -39 87 -49 113 -131 252 -203 342 -92 115 -96 100 85 268 86 80 162 149
169 153 7 4 22 2 33 -5 51 -32 34 44 -18 79 -40 27 -58 21 -37 -12 15 -23 12
-26 -151 -182 -91 -87 -171 -157 -177 -157 -6 1 -17 3 -25 5 -36 10 -16 -27
47 -88 98 -96 196 -247 266 -411 20 -46 36 -85 36 -87 0 -2 -20 -10 -44 -18
-55 -19 -55 -19 -124 121 -71 142 -161 270 -264 377 -49 49 -88 91 -88 93 0 2
25 32 56 67 52 58 59 63 87 58 18 -4 28 -2 24 3 -3 5 8 25 24 43 l29 34 -32
28 c-18 15 -57 45 -85 66 -29 21 -51 43 -49 49 12 32 110 153 120 147 6 -3 41
-28 77 -55z m944 -488 c20 -39 33 -75 30 -79 -11 -18 -44 -18 -61 0 -26 28
-37 23 -31 -14 5 -33 4 -34 -59 -65 l-64 -32 -19 38 c-10 21 -21 55 -22 76 -4
38 -3 39 65 77 37 22 73 39 80 39 6 0 17 -14 24 -32 6 -17 14 -29 18 -26 3 3
-2 21 -11 38 -14 27 -15 34 -3 41 7 5 14 9 15 9 2 0 19 -32 38 -70z m74 -162
c12 -29 25 -79 30 -110 16 -97 68 -167 59 -80 l-3 39 105 36 c58 19 113 39
122 42 12 5 20 1 24 -11 4 -11 13 -26 21 -35 16 -19 54 -164 78 -303 18 -99
18 -99 -3 -116 -23 -19 -110 -34 -136 -24 -15 6 -17 2 -10 -32 8 -48 14 -56
14 -21 0 23 5 27 56 37 31 7 64 10 74 7 12 -3 20 1 23 12 10 43 22 -192 22
-424 -1 -194 -5 -292 -19 -385 -50 -355 -153 -702 -203 -683 -21 8 -14 53 29
193 60 193 133 559 114 577 -3 3 -59 11 -123 17 l-118 11 -3 33 c-4 41 -20 41
-34 1 l-11 -32 -96 7 c-53 4 -113 10 -133 13 l-38 6 0 52 c0 29 3 73 6 99 l7
46 106 0 107 0 12 -32 c9 -26 14 -30 24 -20 15 15 15 68 -2 231 -12 124 -8
135 38 128 14 -3 22 1 22 10 0 10 -6 12 -20 8 -39 -12 -57 10 -63 79 -10 107
-56 313 -102 456 -55 171 -59 199 -31 210 32 13 32 13 55 -42z m-1323 -325
c32 -32 118 -225 119 -268 1 -22 7 -50 14 -62 6 -12 11 -31 11 -42 0 -11 4
-22 8 -25 5 -3 46 4 92 15 46 11 89 18 96 15 14 -5 25 -69 17 -106 -5 -26 -9
-29 -82 -39 -42 -6 -102 -14 -133 -17 l-56 -7 -11 39 c-6 22 -19 76 -30 120
-23 96 -69 209 -115 287 l-33 55 36 25 c45 31 46 31 67 10z m1279 -943 c167
-19 155 -13 155 -72 0 -65 -40 -260 -84 -416 -80 -276 -239 -603 -394 -810
l-40 -53 -27 23 -26 23 69 105 c74 112 202 334 202 349 0 5 13 38 29 73 65
145 168 475 153 489 -4 4 -52 17 -107 29 -55 12 -101 23 -102 24 -6 5 35 204
46 224 14 26 9 25 126 12z m349 -26 l78 -7 -6 -72 c-15 -170 -110 -545 -162
-642 -13 -25 -24 -54 -24 -64 0 -26 -100 -246 -166 -363 -70 -126 -193 -310
-216 -325 -15 -10 -33 0 -108 61 -50 39 -90 76 -90 80 0 5 17 32 38 61 222
305 387 697 457 1087 8 47 23 111 32 143 l17 59 35 -6 c20 -3 71 -8 115 -12z
m-1349 -790 c44 -36 88 -72 98 -79 27 -19 13 -57 -47 -123 -111 -124 -220
-218 -351 -305 -92 -60 -281 -156 -317 -160 -16 -2 -24 11 -43 60 -13 34 -21
64 -17 67 3 4 49 27 101 52 155 73 264 144 222 144 -9 0 -61 74 -61 87 0 5 18
21 40 36 22 16 40 33 40 39 0 6 48 61 108 122 95 98 123 123 142 125 3 1 41
-29 85 -65z m733 -647 c108 -91 110 -82 -83 -285 l-108 -113 -24 23 c-47 44
-48 57 -9 97 20 20 36 40 36 44 0 4 -18 27 -41 52 l-41 44 19 33 c10 18 40 58
67 87 26 30 55 65 63 78 18 27 15 28 121 -60z"/>
<path d="M4024 4032 c8 -13 -120 -105 -134 -97 -18 11 -11 -21 9 -39 17 -16
18 -16 15 6 -3 19 7 31 53 62 31 22 63 39 70 39 18 0 13 29 -6 35 -8 3 -11 0
-7 -6z"/>
<path d="M3940 3840 c6 -11 13 -20 16 -20 2 0 0 9 -6 20 -6 11 -13 20 -16 20
-2 0 0 -9 6 -20z"/>
<path d="M3970 3791 c0 -6 4 -13 10 -16 6 -3 7 1 4 9 -7 18 -14 21 -14 7z"/>
<path d="M3768 3732 c-28 -17 -36 -32 -18 -32 6 0 10 4 10 9 0 20 41 23 56 4
13 -16 13 -15 3 10 -14 32 -15 32 -51 9z"/>
<path d="M4030 3667 c0 -9 -27 -28 -66 -46 -36 -17 -68 -31 -70 -31 -2 0 -13
18 -24 40 -11 22 -23 40 -25 40 -3 0 1 -13 10 -30 8 -16 20 -42 26 -57 6 -16
13 -23 17 -16 9 14 127 73 147 73 19 0 19 14 0 30 -12 10 -15 10 -15 -3z"/>
<path d="M4922 3060 c0 -19 2 -27 5 -17 2 9 2 25 0 35 -3 9 -5 1 -5 -18z"/>
<path d="M4782 2905 c0 -16 2 -22 5 -12 2 9 2 23 0 30 -3 6 -5 -1 -5 -18z"/>
<path d="M4931 2914 c0 -11 3 -14 6 -6 3 7 2 16 -1 19 -3 4 -6 -2 -5 -13z"/>
<path d="M4781 2830 c-1 -25 0 -25 80 -23 44 0 83 4 86 6 3 3 0 14 -6 24 -6
10 -11 12 -11 6 0 -9 -21 -13 -69 -13 -46 0 -71 4 -74 13 -3 6 -6 1 -6 -13z"/>
<path d="M2995 5509 c39 -10 74 -17 80 -16 11 4 -118 37 -137 36 -7 0 19 -9
57 -20z"/>
<path d="M3175 5460 c49 -16 91 -27 93 -25 5 4 -159 55 -174 54 -5 0 31 -14
81 -29z"/>
<path d="M4555 4967 c5 -19 -2 -31 -33 -59 -22 -20 -42 -40 -46 -46 -4 -6 40
-66 96 -134 120 -143 190 -239 211 -289 8 -20 28 -51 45 -70 95 -109 263 -505
336 -795 49 -195 88 -480 80 -577 -4 -46 -2 -67 9 -81 14 -19 15 -19 21 11 8
35 31 43 129 43 l60 0 -7 -54 c-3 -29 -19 -107 -36 -172 -16 -66 -30 -135 -29
-154 1 -25 5 -15 14 35 8 39 25 115 38 170 20 84 25 95 31 72 4 -16 4 -72 1
-125 -3 -54 -8 -142 -11 -197 -7 -130 -36 -339 -69 -494 -49 -231 -146 -531
-207 -638 -36 -64 -52 -116 -35 -111 15 5 48 73 77 158 12 36 44 130 71 209
83 246 144 529 170 801 17 168 18 572 2 577 -6 2 -13 -6 -15 -19 -3 -21 -9
-24 -92 -30 -49 -5 -92 -6 -94 -3 -3 2 -11 60 -18 127 -46 404 -132 704 -305
1055 -54 111 -99 208 -99 215 1 17 89 70 106 64 8 -3 14 0 14 7 0 18 -174 259
-271 376 -127 153 -156 179 -144 128z m99 -100 c67 -69 221 -269 254 -331 25
-46 20 -56 -42 -88 l-40 -20 -34 38 c-18 22 -67 84 -109 139 -42 55 -103 131
-136 168 l-60 68 44 45 c24 24 47 44 52 44 5 0 37 -28 71 -63z"/>
<path d="M3720 4771 c0 -5 7 -12 16 -15 14 -5 15 -4 4 9 -14 17 -20 19 -20 6z"/>
<path d="M3852 4673 c14 -15 15 -22 6 -31 -7 -7 -18 -12 -26 -12 -18 0 -6 -17
21 -31 18 -9 20 -9 10 2 -10 10 -9 17 7 35 l21 21 -28 18 c-28 18 -28 18 -11
-2z"/>
<path d="M4025 4440 c44 -47 82 -84 85 -82 2 1 -34 40 -80 85 l-84 82 79 -85z"/>
<path d="M4120 4343 c0 -6 8 -17 18 -24 16 -13 16 -13 2 6 -8 11 -16 22 -17
24 -2 2 -3 0 -3 -6z"/>
<path d="M4224 4342 c7 -12 -42 -54 -55 -46 -15 9 -10 -13 6 -26 12 -10 15
-10 15 3 0 9 10 23 22 31 20 15 24 14 47 -7 l25 -22 -23 32 c-20 30 -53 60
-37 35z"/>
<path d="M2708 4149 c-44 -134 -44 -142 2 -153 l25 -6 -25 12 c-14 7 -26 13
-28 14 -6 4 81 244 88 244 4 0 27 -7 50 -15 24 -8 45 -13 47 -11 2 2 -23 13
-56 24 l-60 20 -43 -129z"/>
<path d="M4310 4226 c19 -26 39 -50 44 -54 5 -3 -6 16 -24 42 -19 26 -39 50
-44 54 -5 3 6 -16 24 -42z"/>
<path d="M4370 4140 c6 -11 13 -20 16 -20 2 0 0 9 -6 20 -6 11 -13 20 -16 20
-2 0 0 -9 6 -20z"/>
<path d="M4420 4060 c6 -11 13 -20 16 -20 2 0 0 9 -6 20 -6 11 -13 20 -16 20
-2 0 0 -9 6 -20z"/>
<path d="M5550 3891 c0 -14 -109 -53 -131 -46 -22 7 -22 8 -7 -36 11 -32 12
-33 18 -10 4 19 18 29 60 43 30 10 62 16 71 13 14 -5 16 -1 12 15 -6 22 -23
38 -23 21z"/>
<path d="M3130 3826 c0 -2 8 -10 18 -17 15 -13 16 -12 3 4 -13 16 -21 21 -21
13z"/>
<path d="M3207 3759 l23 -23 -57 -58 -57 -58 -28 27 c-36 35 -36 26 0 -15 31
-34 42 -39 42 -19 1 15 93 107 109 107 20 0 12 16 -21 39 l-33 24 22 -24z"/>
<path d="M3295 3752 c19 -23 15 -33 -19 -45 -5 -2 -6 -9 -2 -15 5 -9 14 -5 28
14 l21 26 -24 21 -23 22 19 -23z"/>
<path d="M5431 3754 c0 -11 3 -14 6 -6 3 7 2 16 -1 19 -3 4 -6 -2 -5 -13z"/>
<path d="M5441 3714 c0 -11 3 -14 6 -6 3 7 2 16 -1 19 -3 4 -6 -2 -5 -13z"/>
<path d="M2992 3677 c-24 -25 -28 -37 -12 -37 6 0 10 6 10 14 0 7 7 19 15 26
12 10 18 10 33 -1 15 -13 16 -12 3 4 -18 22 -23 22 -49 -6z"/>
<path d="M5245 3652 c-2 -2 -1 -10 2 -18 4 -10 10 -11 23 -4 27 14 40 12 40
-7 0 -9 3 -14 6 -10 3 3 3 14 0 25 -5 14 -15 19 -37 18 -17 -1 -32 -3 -34 -4z"/>
<path d="M5461 3644 c0 -11 3 -14 6 -6 3 7 2 16 -1 19 -3 4 -6 -2 -5 -13z"/>
<path d="M5472 3605 c0 -11 4 -31 8 -45 6 -20 8 -21 8 -5 0 11 -4 31 -8 45 -6
20 -8 21 -8 5z"/>
<path d="M5322 3580 c0 -14 2 -19 5 -12 2 6 2 18 0 25 -3 6 -5 1 -5 -13z"/>
<path d="M5331 3534 c0 -11 3 -14 6 -6 3 7 2 16 -1 19 -3 4 -6 -2 -5 -13z"/>
<path d="M3476 3515 c-17 -13 -33 -22 -38 -19 -4 3 -8 0 -8 -5 0 -16 8 -14 41
10 16 11 33 17 39 14 5 -3 10 -2 10 4 0 20 -16 19 -44 -4z"/>
<path d="M5492 3510 c0 -14 2 -19 5 -12 2 6 2 18 0 25 -3 6 -5 1 -5 -13z"/>
<path d="M5341 3494 c0 -11 3 -14 6 -6 3 7 2 16 -1 19 -3 4 -6 -2 -5 -13z"/>
<path d="M5090 3468 c0 -7 5 -20 10 -28 8 -12 10 -9 10 13 0 15 -4 27 -10 27
-5 0 -10 -6 -10 -12z"/>
<path d="M5352 3440 c0 -14 2 -19 5 -12 2 6 2 18 0 25 -3 6 -5 1 -5 -13z"/>
<path d="M5511 3419 c-1 -24 -129 -48 -142 -28 -6 10 -9 4 -9 -18 0 -31 14
-46 22 -23 5 17 121 41 130 27 13 -21 20 1 10 30 -6 15 -11 21 -11 12z"/>
<path d="M5121 3344 c0 -11 3 -14 6 -6 3 7 2 16 -1 19 -3 4 -6 -2 -5 -13z"/>
<path d="M5132 3280 c0 -14 2 -19 5 -12 2 6 2 18 0 25 -3 6 -5 1 -5 -13z"/>
<path d="M3621 3274 c0 -11 3 -14 6 -6 3 7 2 16 -1 19 -3 4 -6 -2 -5 -13z"/>
<path d="M3950 3238 c0 -7 5 -20 10 -28 8 -12 10 -11 10 7 0 12 -4 25 -10 28
-5 3 -10 0 -10 -7z"/>
<path d="M5142 3215 c0 -16 2 -22 5 -12 2 9 2 23 0 30 -3 6 -5 -1 -5 -18z"/>
<path d="M3971 3164 c0 -11 3 -14 6 -6 3 7 2 16 -1 19 -3 4 -6 -2 -5 -13z"/>
<path d="M5152 3130 c0 -19 2 -27 5 -17 2 9 2 25 0 35 -3 9 -5 1 -5 -18z"/>
<path d="M3975 3089 c-4 -6 -20 -9 -36 -7 -31 5 -34 -4 -19 -52 8 -24 8 -23 9
8 1 29 4 32 30 32 31 0 49 14 32 24 -5 4 -13 1 -16 -5z"/>
<path d="M3271 3054 c0 -11 3 -14 6 -6 3 7 2 16 -1 19 -3 4 -6 -2 -5 -13z"/>
<path d="M5163 3010 c0 -30 2 -43 4 -27 2 15 2 39 0 55 -2 15 -4 2 -4 -28z"/>
<path d="M3281 3014 c0 -11 3 -14 6 -6 3 7 2 16 -1 19 -3 4 -6 -2 -5 -13z"/>
<path d="M3292 2970 c0 -14 2 -19 5 -12 2 6 2 18 0 25 -3 6 -5 1 -5 -13z"/>
<path d="M3932 2950 c0 -19 2 -27 5 -17 2 9 2 25 0 35 -3 9 -5 1 -5 -18z"/>
<path d="M3943 2760 c0 -30 2 -43 4 -27 2 15 2 39 0 55 -2 15 -4 2 -4 -28z"/>
<path d="M5168 2774 c-5 -4 -8 -17 -8 -29 0 -20 4 -21 55 -17 l55 4 1 -58 2
-59 7 70 c4 39 4 74 -1 80 -6 5 -9 4 -9 -3 0 -19 -88 -16 -92 4 -2 9 -6 12
-10 8z"/>
<path d="M3930 2668 c0 -9 15 -13 50 -13 34 0 54 -5 60 -15 8 -12 10 -11 10 6
0 17 -7 21 -42 22 -23 1 -50 5 -60 8 -11 3 -18 0 -18 -8z"/>
<path d="M4375 2671 c-6 -6 -32 -12 -60 -14 l-50 -3 51 -2 c44 -2 53 -5 58
-24 l7 -23 10 23 c10 27 -1 58 -16 43z"/>
<path d="M4273 2580 c0 -25 2 -35 4 -22 2 12 2 32 0 45 -2 12 -4 2 -4 -23z"/>
<path d="M4372 2545 c0 -16 2 -22 5 -12 2 9 2 23 0 30 -3 6 -5 -1 -5 -18z"/>
<path d="M5263 2520 c0 -25 2 -35 4 -22 2 12 2 32 0 45 -2 12 -4 2 -4 -23z"/>
<path d="M5383 2490 c0 -30 2 -43 4 -27 2 15 2 39 0 55 -2 15 -4 2 -4 -28z"/>
<path d="M4262 2500 c0 -19 2 -27 5 -17 2 9 2 25 0 35 -3 9 -5 1 -5 -18z"/>
<path d="M4021 2474 c0 -11 3 -14 6 -6 3 7 2 16 -1 19 -3 4 -6 -2 -5 -13z"/>
<path d="M4362 2465 c0 -16 2 -22 5 -12 2 9 2 23 0 30 -3 6 -5 -1 -5 -18z"/>
<path d="M4252 2425 c0 -16 2 -22 5 -12 2 9 2 23 0 30 -3 6 -5 -1 -5 -18z"/>
<path d="M5246 2391 c-4 -35 -5 -65 -2 -68 6 -7 19 103 14 119 -3 7 -8 -16
-12 -51z"/>
<path d="M5373 2395 c0 -22 2 -30 4 -17 2 12 2 30 0 40 -3 9 -5 -1 -4 -23z"/>
<path d="M4352 2395 c0 -16 2 -22 5 -12 2 9 2 23 0 30 -3 6 -5 -1 -5 -18z"/>
<path d="M4001 2374 c0 -11 3 -14 6 -6 3 7 2 16 -1 19 -3 4 -6 -2 -5 -13z"/>
<path d="M4242 2370 c0 -14 2 -19 5 -12 2 6 2 18 0 25 -3 6 -5 1 -5 -13z"/>
<path d="M4342 2340 c0 -14 2 -19 5 -12 2 6 2 18 0 25 -3 6 -5 1 -5 -13z"/>
<path d="M5362 2320 c0 -19 2 -27 5 -17 2 9 2 25 0 35 -3 9 -5 1 -5 -18z"/>
<path d="M4232 2320 c0 -14 2 -19 5 -12 2 6 2 18 0 25 -3 6 -5 1 -5 -13z"/>
<path d="M4332 2290 c0 -14 2 -19 5 -12 2 6 2 18 0 25 -3 6 -5 1 -5 -13z"/>
<path d="M4216 2254 c-4 -19 -10 -42 -13 -50 -3 -9 1 -14 11 -14 9 0 19 -7 23
-16 5 -13 7 -13 14 -2 15 23 10 36 -12 31 -21 -6 -21 -4 -15 40 8 55 1 64 -8
11z"/>
<path d="M5232 2270 c0 -14 2 -19 5 -12 2 6 2 18 0 25 -3 6 -5 1 -5 -13z"/>
<path d="M5346 2234 c-3 -26 -4 -49 -2 -52 3 -2 8 17 11 43 4 25 5 48 3 51 -3
2 -8 -17 -12 -42z"/>
<path d="M3967 2247 c-11 -29 -9 -53 4 -40 6 6 9 21 7 34 -3 21 -4 22 -11 6z"/>
<path d="M4315 2228 c-12 -63 -67 -231 -82 -255 -8 -12 -14 -24 -12 -24 2 -1
14 -3 26 -4 13 -1 43 -10 68 -20 39 -15 45 -20 39 -38 -4 -12 -9 -29 -11 -37
-7 -24 16 15 33 56 15 35 14 35 -6 29 -28 -9 -110 25 -110 46 0 8 13 60 29
115 33 111 45 164 38 164 -3 0 -8 -15 -12 -32z"/>
<path d="M5222 2220 c0 -14 2 -19 5 -12 2 6 2 18 0 25 -3 6 -5 1 -5 -13z"/>
<path d="M5211 2164 c0 -11 3 -14 6 -6 3 7 2 16 -1 19 -3 4 -6 -2 -5 -13z"/>
<path d="M5332 2140 c0 -14 2 -19 5 -12 2 6 2 18 0 25 -3 6 -5 1 -5 -13z"/>
<path d="M5201 2114 c0 -11 3 -14 6 -6 3 7 2 16 -1 19 -3 4 -6 -2 -5 -13z"/>
<path d="M5322 2090 c0 -14 2 -19 5 -12 2 6 2 18 0 25 -3 6 -5 1 -5 -13z"/>
<path d="M5186 2055 c-7 -28 -13 -29 -50 -15 -23 8 -26 7 -32 -16 -4 -14 -4
-28 0 -31 3 -4 6 1 6 10 0 26 49 22 59 -5 10 -28 20 -11 27 42 5 45 0 53 -10
15z"/>
<path d="M4127 2062 c-2 -4 -7 -20 -11 -37 -7 -28 -6 -28 7 -11 12 16 18 17
46 8 26 -9 33 -9 38 4 3 8 3 18 -1 21 -3 4 -6 1 -6 -5 0 -19 -28 -14 -50 8
-10 10 -21 16 -23 12z"/>
<path d="M5306 2024 c-4 -20 -5 -38 -3 -40 3 -3 8 11 11 32 4 20 5 38 3 40 -3
3 -8 -11 -11 -32z"/>
<path d="M3517 1959 c-4 -16 -3 -18 9 -8 16 13 19 29 5 29 -5 0 -11 -9 -14
-21z"/>
<path d="M5086 1944 c-4 -14 -5 -28 -3 -31 3 -2 8 8 11 23 4 14 5 28 3 31 -3
2 -8 -8 -11 -23z"/>
<path d="M5291 1954 c0 -11 3 -14 6 -6 3 7 2 16 -1 19 -3 4 -6 -2 -5 -13z"/>
<path d="M3494 1918 c-4 -7 -14 -24 -22 -38 -14 -24 -13 -24 3 -5 20 24 37 55
31 55 -3 0 -8 -6 -12 -12z"/>
<path d="M5271 1884 c-7 -25 -10 -48 -8 -51 3 -2 10 17 16 43 7 25 10 48 8 51
-3 2 -10 -17 -16 -43z"/>
<path d="M3349 1878 c-9 -16 -8 -19 3 -16 7 3 30 -8 50 -24 l37 -29 12 23 c11
21 11 22 -4 9 -15 -12 -21 -9 -52 22 -34 34 -36 34 -46 15z"/>
<path d="M5061 1854 c0 -11 3 -14 6 -6 3 7 2 16 -1 19 -3 4 -6 -2 -5 -13z"/>
<path d="M3309 1823 l-24 -28 28 24 c25 23 32 31 24 31 -2 0 -14 -12 -28 -27z"/>
<path d="M4326 1815 c-9 -26 -7 -32 5 -12 6 10 9 21 6 23 -2 3 -7 -2 -11 -11z"/>
<path d="M5041 1801 c-8 -17 -11 -34 -8 -38 8 -7 29 46 24 60 -2 6 -9 -4 -16
-22z"/>
<path d="M3275 1780 c-13 -22 -209 -190 -221 -190 -6 0 -17 -7 -24 -15 -10
-12 -10 -15 3 -15 17 0 77 -88 71 -104 -5 -14 -153 -99 -212 -122 -24 -9 -41
-18 -39 -21 8 -8 189 82 285 143 2 1 -10 16 -26 34 -16 17 -36 43 -43 57 -13
24 -11 27 26 56 50 39 202 187 193 187 -4 0 -10 -5 -13 -10z"/>
<path d="M3985 1730 c-9 -16 -13 -30 -11 -30 3 0 12 14 21 30 9 17 13 30 11
30 -3 0 -12 -13 -21 -30z"/>
<path d="M4232 1615 c-12 -25 -20 -45 -17 -45 7 0 47 81 43 86 -3 2 -14 -17
-26 -41z"/>
<path d="M3922 1628 c-14 -14 -16 -42 -2 -33 14 9 78 -37 73 -52 -7 -19 14
-16 21 3 8 21 8 24 -4 24 -21 0 -80 45 -75 58 6 15 2 15 -13 0z"/>
<path d="M4144 1464 c-60 -97 -110 -164 -122 -164 -4 0 -21 13 -38 28 l-31 28
-68 -84 c-37 -46 -79 -90 -91 -99 -23 -15 -32 -33 -16 -33 4 0 43 43 86 95 43
52 82 95 86 95 4 0 19 -9 33 -20 18 -14 24 -26 19 -42 -3 -14 -1 -19 6 -14 12
7 135 187 176 259 49 83 21 50 -40 -49z"/>
<path d="M3856 1348 c-47 -62 -47 -63 -6 -18 39 42 66 80 57 80 -2 0 -25 -28
-51 -62z"/>
<path d="M2775 1290 c-13 -6 -15 -9 -5 -9 8 0 22 4 30 9 18 12 2 12 -25 0z"/>
<path d="M2728 1273 c7 -3 16 -2 19 1 4 3 -2 6 -13 5 -11 0 -14 -3 -6 -6z"/>
<path d="M3728 1209 c-37 -38 -63 -69 -58 -69 9 0 109 102 123 126 13 22 6 17
-65 -57z"/>
<path d="M2620 1250 c0 -13 30 -13 50 0 11 7 7 10 -17 10 -18 0 -33 -4 -33
-10z"/>
</g>
</svg>
